<svg width="36" height="36" viewBox="0 0 36 36" fill="none" xmlns="http://www.w3.org/2000/svg">
    <path
        d="M18 36C27.9411 36 36 27.9411 36 18C36 8.05887 27.9411 0 18 0C8.05887 0 0 8.05887 0 18C0 27.9411 8.05887 36 18 36Z"
        fill="url(#paint0_linear_44_1721)" />
    <path fill-rule="evenodd" clip-rule="evenodd"
        d="M26.1027 13.5389C26.3821 14.1901 26.5981 15.0365 26.7568 15.8349C26.9133 16.6224 27.0177 17.3815 27.0717 17.8957C27.8063 18.2763 28.482 19.086 28.8972 20.0682C29.3446 21.1266 29.5087 22.4281 29.0967 23.7025C28.2632 26.2807 25.1539 28.5673 17.8785 28.6639C10.7734 28.7583 7.71573 26.3233 6.89813 23.6294C6.49507 22.3013 6.65349 20.9491 7.10356 19.8845C7.50644 18.9316 8.16925 18.1549 8.92923 17.8759C8.89515 17.0314 9.06744 16.1413 9.29737 15.3651C9.51664 14.6249 9.7933 13.9719 10.012 13.5366C8.65054 12.028 8.05196 10.7058 8.01003 9.61602C7.96602 8.47231 8.53754 7.62803 9.38112 7.15903C10.9684 6.27657 13.5135 6.71863 14.7781 8.78929C16.017 8.05895 17.3534 7.91196 18.5278 8.02862C19.6303 8.13816 20.6044 8.48109 21.25 8.80846C22.6225 6.64318 25.0929 6.19192 26.6363 7.12936C27.445 7.62054 27.9761 8.48467 27.9423 9.62672C27.9098 10.7222 27.3598 12.0458 26.1027 13.5389ZM26.3426 7.60913C25.0498 6.8239 22.8002 7.19517 21.5994 9.32159L21.4594 9.56951L21.2123 9.42701C20.6488 9.10212 19.6387 8.7037 18.4718 8.58778C17.3081 8.47218 16.0071 8.63877 14.8343 9.41762L14.573 9.59114L14.4278 9.3138C13.3742 7.30216 11.0355 6.88278 9.65605 7.6497C8.98355 8.02359 8.53846 8.6778 8.57374 9.5945C8.60974 10.5301 9.14861 11.78 10.56 13.3013L10.6967 13.4486L10.6012 13.6252C10.391 14.0141 10.0788 14.7126 9.83843 15.5241C9.59732 16.3381 9.43487 17.2442 9.50579 18.0566L9.52712 18.301L9.28691 18.355C8.68632 18.4901 8.03483 19.1296 7.62347 20.1026C7.21855 21.0604 7.07727 22.2778 7.43812 23.4667C8.14832 25.8068 10.8729 28.195 17.8709 28.102C25.0748 28.0064 27.8419 25.7507 28.5598 23.5303C28.9234 22.4055 28.782 21.2436 28.3773 20.2863C27.9691 19.3205 27.312 18.6053 26.6946 18.3388L26.5415 18.2727L26.526 18.1072C26.4798 17.6165 26.373 16.7971 26.2034 15.9441C26.0328 15.0861 25.803 14.2163 25.5174 13.6116L25.4394 13.4467L25.5589 13.3086C26.8518 11.8137 27.3502 10.5623 27.3784 9.61013C27.4062 8.67128 26.9795 7.99596 26.3426 7.60913Z"
        fill="white" stroke="white" />
    <defs>
        <linearGradient id="paint0_linear_44_1721" x1="5.66667" y1="7.33333" x2="29.6667" y2="31.6667"
            gradientUnits="userSpaceOnUse">
            <stop stop-color="#FF8080" />
            <stop offset="1" stop-color="#C62B23" />
        </linearGradient>
    </defs>
</svg>