<svg width="1440" height="218" viewBox="0 0 1440 218" fill="none" xmlns="http://www.w3.org/2000/svg">
    <g filter="url(#filter0_d_44_1532)">
        <path
            d="M797.506 121.278C796.942 118.891 795.467 117.112 793.167 116.548C792.863 115.81 792.429 115.116 791.995 114.465C790.477 111.818 788.871 109.128 786.745 106.958C784.185 104.398 780.67 103.183 777.372 101.882C773.64 100.493 770.126 98.6705 766.437 97.1518C755.589 93.2899 752.205 97.8895 742.181 99.1478C739.1 99.4516 736.106 98.7573 733.069 98.4102C730.595 98.1498 728.165 97.8895 725.692 97.9329C725.692 97.9329 725.692 97.9329 725.649 97.9329C725.562 97.9329 725.518 97.9329 725.432 97.9763C725.388 97.9763 725.301 97.9763 725.258 97.9763C725.215 97.9763 725.171 97.9763 725.128 97.9763H725.084H725.041C724.998 97.9763 724.954 97.9763 724.911 97.9763C724.781 97.9763 724.651 98.0196 724.52 98.0196C724.477 98.0196 724.434 98.0196 724.39 98.0196C724.607 99.1045 725.084 100.146 725.909 100.927C725.996 101.057 726.126 101.144 726.213 101.274C727.731 102.489 728.296 104.181 728.426 105.96C728.469 106.004 728.469 106.047 728.469 106.134C728.469 106.264 728.469 106.351 728.469 106.481C728.512 107.609 728.382 108.781 728.209 109.909C728.209 109.953 728.209 109.953 728.209 109.996C728.209 110.039 728.209 110.083 728.209 110.083C728.209 110.3 728.252 110.473 728.296 110.69C728.339 110.907 728.426 111.124 728.469 111.341C728.556 111.558 728.643 111.775 728.729 111.992C728.816 112.209 728.903 112.426 728.99 112.686C729.077 112.947 729.12 113.207 729.207 113.467C729.294 113.728 729.337 113.945 729.424 114.205C729.467 114.422 729.554 114.682 729.597 114.899C729.684 115.16 729.727 115.42 729.727 115.68C729.771 115.897 729.771 116.158 729.727 116.375C729.684 116.809 729.597 117.242 729.467 117.633C729.424 117.807 729.337 117.98 729.25 118.154C729.163 118.371 729.033 118.544 728.903 118.718C728.643 119.065 728.252 119.369 727.905 119.629C727.558 119.889 727.167 120.063 726.777 120.237C726.516 120.323 726.256 120.41 725.996 120.497C725.692 120.54 725.432 120.584 725.128 120.584C724.911 120.584 724.694 120.584 724.477 120.584C724.434 120.584 724.39 120.584 724.303 120.584C724.217 120.584 724.173 120.584 724.086 120.584C723.869 120.584 723.696 120.54 723.479 120.54C723.262 120.54 723.045 120.497 722.828 120.54C722.828 120.54 722.828 120.54 722.785 120.54C722.524 120.54 722.221 120.627 721.96 120.67C721.44 120.757 720.962 120.844 720.442 120.887C720.225 120.931 719.964 120.931 719.747 120.931H719.704C719.443 120.931 719.14 120.931 718.879 120.887C718.619 120.887 718.359 120.844 718.055 120.844C717.751 120.801 717.491 120.801 717.187 120.757C716.406 120.497 715.625 120.15 714.974 119.629C715.495 119.846 716.059 120.02 716.623 120.106C716.71 120.15 716.797 120.15 716.883 120.193H716.84C717.187 120.28 717.534 120.323 717.925 120.367H717.881C718.576 120.41 719.313 120.453 720.008 120.453C720.225 120.453 720.442 120.41 720.658 120.41C720.875 120.367 721.092 120.367 721.309 120.323C721.526 120.28 721.743 120.237 721.96 120.193C722.177 120.15 722.394 120.106 722.611 120.106C722.828 120.106 723.045 120.106 723.262 120.106C723.479 120.106 723.696 120.15 723.913 120.15C724.086 120.15 724.303 120.193 724.477 120.193C724.52 120.193 724.564 120.193 724.607 120.193H724.651C724.737 120.193 724.824 120.193 724.954 120.193C725.041 120.193 725.084 120.193 725.171 120.193C725.301 120.193 725.432 120.15 725.562 120.15C725.649 120.15 725.692 120.15 725.779 120.15C725.779 120.15 725.779 120.15 725.735 120.15C725.822 120.15 725.909 120.106 725.996 120.106C726.039 120.106 726.126 120.106 726.169 120.063C726.56 119.933 726.907 119.759 727.254 119.586C727.428 119.499 727.601 119.369 727.731 119.282C727.905 119.152 728.035 119.065 728.209 118.935C728.252 118.891 728.339 118.805 728.382 118.761C728.426 118.674 728.512 118.631 728.556 118.544C728.643 118.457 728.686 118.327 728.729 118.24C728.773 118.11 728.816 117.98 728.86 117.85C728.903 117.676 728.99 117.503 729.033 117.329C729.077 117.112 729.12 116.852 729.163 116.635C729.163 116.505 729.207 116.375 729.207 116.244C729.207 116.114 729.207 115.984 729.163 115.81C729.163 115.68 729.12 115.594 729.12 115.463C729.077 115.29 729.033 115.073 728.99 114.899C728.946 114.682 728.903 114.465 728.816 114.248C728.773 114.031 728.686 113.814 728.643 113.597C728.599 113.381 728.512 113.164 728.469 112.947C728.382 112.599 728.209 112.296 728.079 111.992C728.079 111.949 728.035 111.949 728.035 111.905C727.905 111.601 727.818 111.254 727.731 110.907C727.688 110.734 727.688 110.56 727.645 110.343C727.645 110.126 727.601 109.909 727.601 109.692C727.601 109.562 727.601 109.475 727.645 109.345C727.645 109.085 727.688 108.868 727.731 108.607C727.818 107.392 727.862 106.221 727.601 105.006C727.167 102.532 724.347 101.404 723.739 98.9743C723.479 97.2386 724 95.5029 723.088 94.1577C722.524 93.3333 721.266 93.0295 720.311 93.2899C719.617 93.5936 719.183 94.3313 719.01 95.0256C718.923 95.3293 718.836 96.3273 718.966 96.9348C715.668 96.7613 712.371 96.9348 709.16 97.6725C707.858 97.8461 706.339 98.4102 705.124 97.5423C704.256 96.8481 703.432 95.8934 702.304 95.6765C701.002 95.5029 699.743 96.5877 699.613 97.8895C699.44 99.4082 700.394 100.71 701.653 101.448C701.609 101.708 701.566 101.925 701.522 102.185C700.351 106.351 698.615 112.903 700.698 116.852C701.87 119.499 704.386 121.191 705.862 123.621C708.292 127.917 708.856 132.994 711.546 137.16C712.891 139.373 715.017 140.935 716.797 142.757C717.664 143.755 718.489 144.797 719.574 145.491C719.4 145.447 719.227 145.404 719.14 145.361C718.098 145.1 717.274 144.319 716.493 143.625C716.406 143.582 716.363 143.495 716.276 143.451C716.232 143.451 716.232 143.408 716.189 143.408C716.102 143.321 716.015 143.234 715.929 143.191C715.929 143.234 715.929 143.278 715.929 143.321C715.929 143.365 715.929 143.408 715.929 143.451C715.929 143.625 715.929 143.755 715.972 143.929V143.972V144.015C716.232 146.706 717.187 149.309 718.445 151.696C719.66 153.909 721.309 155.818 722.698 157.901C724.39 160.591 724 163.933 723.566 166.927C723.436 167.664 723.175 168.489 723.392 169.27C723.826 170.355 724.824 171.179 725.952 171.353C726.083 171.396 726.256 171.396 726.386 171.396C727.905 171.396 729.207 170.094 729.988 168.793C729.988 168.749 730.031 168.706 730.031 168.706C730.075 168.619 730.118 168.532 730.161 168.445C730.205 168.359 730.248 168.272 730.292 168.185C730.335 168.098 730.335 168.011 730.378 167.925C730.422 167.664 730.422 167.447 730.422 167.317C730.942 161.676 727.818 155.731 724.781 150.785C726.299 152.651 727.688 154.603 728.686 156.816C730.161 159.984 731.81 163.368 731.463 166.97C731.42 168.359 730.595 169.791 730.942 171.222C731.507 173.088 733.589 174.086 735.455 174.086C735.499 174.086 735.499 174.086 735.542 174.086C737.798 174.086 739.751 170.311 740.966 168.706C743.266 165.538 744.871 161.937 747.388 158.856C749.254 156.643 750.946 154.083 751.12 151.088C751.12 151.045 751.12 151.002 751.076 150.958C751.12 148.225 749.861 145.708 749.341 143.061C748.56 140.154 749.645 137.333 750.165 134.469C750.165 134.903 750.165 135.38 750.122 135.858C750.035 137.724 749.514 139.633 749.775 141.499C750.339 144.797 752.118 147.747 752.161 151.132V151.175C752.205 151.305 752.335 151.392 752.465 151.349C753.506 151.392 754.591 151.436 755.633 151.436C755.763 151.436 755.936 151.436 756.067 151.436C758.236 151.436 760.449 151.349 762.619 151.175C762.792 151.132 762.966 151.132 763.14 151.088C763.27 151.045 763.4 151.045 763.53 151.002H763.487C763.573 151.002 763.66 150.958 763.747 150.958C763.747 150.958 763.747 150.958 763.747 150.915C763.747 150.915 763.79 150.915 763.79 150.871C763.79 150.828 763.79 150.828 763.79 150.785C763.79 150.785 763.79 150.785 763.79 150.828C763.79 150.785 763.79 150.785 763.79 150.741C763.79 150.611 763.79 150.524 763.79 150.394C763.79 150.394 763.79 150.394 763.79 150.351C763.79 150.307 763.79 150.264 763.79 150.221C763.79 150.09 763.79 150.004 763.79 149.873V149.83C763.79 149.787 763.79 149.787 763.79 149.743C763.313 146.619 763.704 143.321 764.745 140.327C763.573 145.1 763.487 150.524 766.394 154.69C767.826 156.686 768.824 159.159 768.433 161.633C768.216 162.24 767.913 162.891 767.566 163.455C766.654 165.017 765.353 166.406 765.136 168.272C765.049 170.789 767.218 171.222 769.258 171.353C774.508 171.83 777.459 166.84 779.889 162.978C780.757 161.763 781.625 160.548 782.319 159.246C784.879 155.688 786.788 151.696 789.001 147.877C793.948 139.676 794.469 133.818 793.037 124.489C793.037 124.446 792.993 124.359 792.993 124.272C793.861 126.225 794.122 128.524 794.382 130.607C794.382 130.651 794.425 130.694 794.425 130.737C794.425 130.737 794.469 130.737 794.469 130.694C794.512 130.651 794.556 130.607 794.642 130.607C794.686 130.607 794.686 130.564 794.729 130.564C794.816 130.477 794.946 130.434 795.033 130.347C795.25 130.217 795.51 130.043 795.727 129.913C795.944 129.739 796.204 129.566 796.378 129.392C796.508 129.262 796.682 129.132 796.812 129.002C796.899 128.915 796.986 128.828 797.072 128.741C797.159 128.655 797.246 128.568 797.289 128.438C797.376 128.264 797.506 128.134 797.593 127.96C797.68 127.787 797.767 127.657 797.853 127.483C797.94 127.266 797.984 127.049 798.07 126.832C798.07 126.789 798.07 126.789 798.07 126.745C798.461 124.879 798.114 122.84 797.506 121.278ZM727.167 113.467C727.167 113.424 727.167 113.381 727.167 113.337C727.167 113.337 727.167 113.424 727.167 113.467Z"
            fill="#021304" />
        <path
            d="M768 159.897C767.826 156.903 765.136 155.037 764.224 152.303C764.224 152.303 764.224 152.303 764.224 152.26C764.224 152.26 764.224 152.26 764.224 152.217C764.181 152.13 764.181 152.043 764.181 152V151.956C764.181 151.913 764.181 151.913 764.138 151.87C764.094 151.739 764.094 151.653 764.051 151.522C764.051 151.522 764.051 151.522 764.051 151.479C763.747 151.566 763.443 151.609 763.14 151.653C762.836 151.696 762.575 151.739 762.272 151.783C762.272 151.87 762.272 151.956 762.315 152.043C762.315 152.13 762.315 152.173 762.315 152.26C762.315 152.303 762.315 152.347 762.315 152.347C762.315 152.39 762.315 152.434 762.315 152.434C762.315 152.477 762.315 152.564 762.359 152.607C762.359 152.607 762.359 152.607 762.359 152.651C762.445 153.041 762.619 153.475 762.619 153.649C762.619 153.649 762.619 153.692 762.662 153.692C762.662 153.735 762.662 153.779 762.662 153.779C762.966 155.124 763.704 156.339 763.877 157.728C764.007 159.116 763.921 160.548 763.4 161.85C762.879 163.152 761.838 164.28 761.708 165.712C761.534 167.187 762.445 168.706 763.964 168.923H764.007C764.094 168.923 764.224 168.923 764.311 168.923C764.355 168.923 764.441 168.923 764.528 168.923C764.441 168.228 764.441 167.491 764.702 166.84C765.656 164.497 768.13 162.631 768 159.897Z"
            fill="#021304" />
        <path
            d="M1325.53 99.1981C1325.04 98.0423 1324.2 96.5918 1324.06 96.2066C1323.59 94.9601 1323.2 93.6456 1323.2 92.2858C1323.25 90.926 1323.36 89.5435 1323.43 88.1837C1323.52 87.5038 1323.59 86.8012 1323.61 86.1213C1323.86 84.0136 1323.95 81.8606 1323.65 79.7529C1323.52 79.005 1323.49 78.2344 1323.38 77.4865C1323.34 77.2826 1323.29 77.1012 1323.25 76.8973C1323.22 76.6706 1323.18 76.4213 1323.15 76.1947C1322.61 73.7471 1320.48 71.9566 1320 69.4863C1319.69 67.2426 1320.09 64.9763 1319.8 62.7326C1319.6 61.2142 1318.85 59.8317 1318.28 58.4266C1317.99 57.6107 1317.72 56.7721 1317.49 55.9562C1317.26 55.299 1317.06 54.5738 1316.51 54.0752C1315.95 53.5312 1315.02 53.5766 1314.68 54.3471C1314.41 55.0044 1314.47 55.7069 1314.59 56.3868C1314.59 56.5002 1314.7 56.9988 1314.86 57.4294C1314.25 57.2027 1313.64 57.0214 1313 56.8628C1312.19 56.6815 1311.32 56.6815 1310.49 56.6815C1309.65 56.6815 1308.85 56.9534 1308.04 57.0667C1307.83 56.7041 1307.68 56.3189 1307.54 55.9109C1307.29 55.1177 1307.15 53.4406 1306.09 53.3953C1304.21 53.4859 1305.07 56.6361 1305.68 57.656C1305.77 57.8373 1305.88 58.0413 1305.91 58.2452C1305.75 58.7212 1305.5 59.1744 1305.25 59.6051C1305.25 59.6277 1305.23 59.6504 1305.23 59.673C1305.2 59.7637 1305.16 59.877 1305.14 59.9677C1305.11 60.0357 1305.09 60.1036 1305.09 60.1716C1305.07 60.2396 1305.05 60.3076 1305.05 60.3756V60.3529C1305 60.5116 1304.98 60.6702 1304.96 60.8289C1304.93 60.9422 1304.93 61.0555 1304.91 61.1688C1304.89 61.2821 1304.89 61.3728 1304.87 61.4861C1304.84 61.6448 1304.82 61.8034 1304.77 61.9621C1304.75 62.0527 1304.75 62.1434 1304.73 62.234C1304.71 62.3247 1304.68 62.3927 1304.68 62.4833C1304.64 62.6193 1304.62 62.7553 1304.57 62.8913C1304.53 63.0499 1304.5 63.2085 1304.48 63.3672C1304.48 63.3672 1304.48 63.3672 1304.48 63.3899C1304.48 63.4805 1304.46 63.5712 1304.46 63.6618C1304.46 63.7751 1304.46 63.8658 1304.46 63.9791C1304.46 64.2284 1304.43 64.5004 1304.43 64.7497C1304.43 64.8403 1304.43 64.931 1304.43 65.0216C1304.43 65.1349 1304.43 65.2483 1304.43 65.3616C1304.43 65.4749 1304.41 65.5655 1304.41 65.6789C1304.39 65.7695 1304.37 65.8375 1304.34 65.9282V65.9508C1304.34 66.0188 1304.32 66.0868 1304.32 66.1321C1304.32 66.1548 1304.3 66.2001 1304.3 66.2228C1304.28 66.2681 1304.28 66.3134 1304.25 66.3588C1304.25 66.3814 1304.25 66.3814 1304.25 66.4041C1304.25 66.4494 1304.23 66.4721 1304.23 66.5174C1304.23 66.5401 1304.23 66.5401 1304.23 66.5627C1304.21 66.6761 1304.19 66.812 1304.19 66.9254V66.948C1304.19 67.0387 1304.16 67.1293 1304.16 67.22C1304.16 67.2426 1304.16 67.2426 1304.16 67.2653C1304.16 67.3106 1304.16 67.356 1304.16 67.4013C1304.16 67.4013 1304.16 67.4013 1304.16 67.424C1304.16 67.5373 1304.19 67.6279 1304.21 67.7412V67.7186C1304.21 67.7412 1304.21 67.7412 1304.21 67.7639C1304.23 67.8092 1304.25 67.8772 1304.25 67.9225C1304.28 67.9679 1304.3 68.0132 1304.32 68.0585C1304.32 68.0812 1304.34 68.0812 1304.34 68.1039C1304.37 68.1265 1304.37 68.1492 1304.39 68.1718C1304.39 68.1718 1304.39 68.1718 1304.39 68.1492C1304.41 68.1718 1304.43 68.2172 1304.43 68.2398C1304.68 68.4891 1305.05 68.6478 1305.43 68.6931H1305.45C1305.5 68.6931 1305.54 68.6931 1305.59 68.6931H1305.61C1305.73 68.6931 1305.86 68.6704 1305.98 68.6704C1306 68.6704 1306 68.6704 1306.02 68.6704C1306.07 68.6704 1306.09 68.6704 1306.13 68.6704C1306.27 68.6704 1306.41 68.6704 1306.54 68.6931C1306.66 68.7158 1306.79 68.7384 1306.9 68.7611C1306.97 68.7838 1307.02 68.7838 1307.09 68.8064C1307.15 68.8291 1307.24 68.8291 1307.31 68.8517C1307.45 68.8744 1307.56 68.8971 1307.7 68.9424C1307.81 68.9651 1307.92 68.9877 1308.06 69.0104C1308.15 69.0331 1308.26 69.0331 1308.36 69.0331C1308.4 69.0331 1308.45 69.0331 1308.49 69.0331C1308.56 69.0331 1308.6 69.0104 1308.65 68.9877C1308.79 68.9424 1308.92 68.8971 1309.06 68.8517C1309.15 68.8064 1309.22 68.7838 1309.31 68.7384C1309.51 68.6251 1309.69 68.4891 1309.87 68.3758C1309.9 68.3532 1309.92 68.3532 1309.94 68.3305C1310.05 68.2625 1310.15 68.1718 1310.26 68.1039C1310.3 68.0812 1310.37 68.0359 1310.42 68.0132C1310.49 67.9679 1310.55 67.9452 1310.62 67.8999C1310.76 67.8319 1310.89 67.7639 1311.05 67.7186C1311.17 67.6732 1311.3 67.6506 1311.41 67.6053C1311.53 67.5599 1311.62 67.5146 1311.73 67.4693C1311.82 67.4239 1311.91 67.4013 1312.03 67.356C1312.12 67.3106 1312.19 67.288 1312.28 67.22C1312.39 67.152 1312.48 67.084 1312.59 67.016C1312.66 66.9707 1312.73 66.9254 1312.8 66.8574C1312.89 66.7667 1312.98 66.6987 1313.07 66.6081C1313.14 66.5174 1313.23 66.4494 1313.3 66.3588C1313.21 66.6081 1313.09 66.8347 1312.91 67.0387C1312.82 67.152 1312.73 67.2426 1312.62 67.3333C1312.55 67.3786 1312.5 67.4013 1312.43 67.4466C1312.43 67.4466 1312.43 67.4466 1312.41 67.4466C1312.3 67.5146 1312.21 67.5599 1312.09 67.6053C1312 67.6506 1311.89 67.6959 1311.8 67.7412C1311.69 67.7866 1311.6 67.8319 1311.48 67.8772C1311.39 67.8999 1311.28 67.9452 1311.19 67.9679C1311.05 68.0132 1310.92 68.0812 1310.78 68.1492C1310.71 68.1945 1310.64 68.2172 1310.55 68.2625C1310.51 68.2852 1310.46 68.3078 1310.42 68.3305C1310.33 68.3985 1310.21 68.4665 1310.12 68.5345C1309.96 68.6478 1309.81 68.7611 1309.62 68.8744C1309.51 68.9424 1309.4 69.0104 1309.26 69.0557C1309.15 69.101 1309.01 69.1464 1308.9 69.1917C1308.79 69.237 1308.65 69.2597 1308.51 69.2597C1308.47 69.2597 1308.45 69.2597 1308.4 69.2597C1308.31 69.2597 1308.22 69.2597 1308.13 69.237C1308.02 69.2144 1307.88 69.1917 1307.77 69.169C1307.65 69.1464 1307.52 69.1237 1307.4 69.101C1307.31 69.0784 1307.24 69.0784 1307.15 69.0557C1307.09 69.0331 1307 69.0104 1306.93 69.0104C1306.79 68.9877 1306.66 68.9424 1306.52 68.9424C1306.38 68.9197 1306.22 68.9197 1306.09 68.9424C1306.09 68.9424 1306.09 68.9424 1306.07 68.9424C1305.98 68.9424 1305.88 68.9651 1305.77 68.9651C1305.68 68.9877 1305.59 68.9877 1305.5 69.0104C1305.43 69.0104 1305.36 69.0331 1305.3 69.0331C1305.02 69.5543 1304.66 70.0302 1304.3 70.4835C1303.14 71.9793 1302.1 73.5884 1301.85 75.4468C1301.67 77.3505 1301.99 79.2543 1302.03 81.158C1302.05 82.4952 1301.81 83.8096 1301.62 85.1241C1301.37 87.1865 1301.74 89.2262 1302.05 91.2659C1302.19 92.7164 1301.94 94.7108 1303.82 95.028C1303.96 95.0507 1304.07 95.0734 1304.21 95.0734C1304.55 95.0734 1304.87 94.9827 1305.14 94.8241C1305.2 94.7788 1305.3 94.7334 1305.36 94.6654C1305.5 94.5521 1305.64 94.4388 1305.75 94.3255C1305.79 94.2802 1305.82 94.2575 1305.86 94.2122C1305.88 94.1895 1305.88 94.1895 1305.91 94.1668C1306.04 94.0082 1306.18 93.8496 1306.27 93.6682C1307.22 92.1725 1307.36 90.3594 1307.38 88.637C1307.36 87.7531 1307.22 86.8692 1307.04 86.008C1307.04 85.9627 1307.02 85.9173 1307.02 85.872C1306.97 85.2828 1306.63 84.2176 1306.61 83.9456C1306.54 83.583 1306.5 83.2431 1306.47 82.8804C1306.52 83.0844 1306.56 83.311 1306.66 83.515C1307.56 86.8239 1308.63 90.79 1306.5 93.8496C1306.41 94.0082 1306.29 94.1442 1306.18 94.2575C1306.2 94.3028 1306.13 94.3255 1306.09 94.3481C1306.02 94.4388 1305.93 94.5068 1305.84 94.5974C1305.75 94.6654 1305.66 94.7334 1305.57 94.8014C1305.5 94.8694 1305.41 94.9147 1305.34 94.9601C1305.23 95.028 1305.11 95.1187 1304.98 95.164C1304.89 95.2094 1304.8 95.232 1304.68 95.2774C1304.68 95.2774 1304.68 95.2774 1304.66 95.2774C1304.62 95.3 1304.55 95.3 1304.5 95.3227C1304.39 95.3453 1304.3 95.368 1304.19 95.368C1304.07 95.368 1303.94 95.3907 1303.82 95.3907C1303.82 95.3907 1303.82 95.3907 1303.8 95.3907C1303.75 95.3907 1303.71 95.3907 1303.69 95.3907C1303.66 95.3907 1303.64 95.3907 1303.62 95.3907C1303.6 95.3907 1303.6 95.3907 1303.57 95.3907C1303.55 95.3907 1303.55 95.3907 1303.55 95.3907C1303.53 95.3907 1303.51 95.3907 1303.48 95.3907C1303.48 95.4133 1303.46 95.4133 1303.46 95.436C1303.46 95.4587 1303.44 95.4587 1303.44 95.4813C1303.44 95.504 1303.41 95.504 1303.41 95.5266C1303.41 95.5266 1303.41 95.5493 1303.39 95.5493V95.572C1303.39 95.572 1303.39 95.5946 1303.37 95.5946C1303.37 95.6173 1303.35 95.6173 1303.35 95.64C1302.98 96.2519 1302.44 97.7477 1302.42 97.8836C1302.3 98.2009 1302.26 98.5182 1302.21 98.8355C1302.05 99.3794 1301.92 99.9234 1301.87 100.49C1301.58 102.122 1301.58 103.821 1301.71 105.476C1301.94 107.334 1302.37 109.17 1302.39 111.051C1302.42 112.094 1302.03 113.114 1301.6 114.065C1301.31 114.745 1300.94 115.47 1301.08 116.241C1301.17 116.581 1301.28 116.966 1301.56 117.193C1302.21 117.556 1303.01 117.442 1303.73 117.488C1303.82 117.488 1303.91 117.488 1303.98 117.488C1304.98 117.488 1306 117.057 1306.7 116.354C1307.11 115.901 1307.34 115.289 1307.56 114.723C1307.92 113.181 1308.29 111.618 1309.31 110.349C1310.3 109.034 1311.8 108.332 1313.27 107.72C1313.36 107.697 1313.45 107.652 1313.55 107.629H1313.57C1313.59 107.629 1313.61 107.606 1313.61 107.606C1313.66 107.584 1313.68 107.584 1313.73 107.561C1313.75 107.561 1313.75 107.561 1313.77 107.538H1313.79C1313.82 107.538 1313.82 107.538 1313.84 107.516C1313.84 107.516 1313.82 107.516 1313.82 107.493C1313.77 107.47 1313.73 107.425 1313.66 107.402C1313.64 107.402 1313.64 107.38 1313.61 107.38C1313.59 107.38 1313.59 107.357 1313.57 107.357C1313.52 107.334 1313.48 107.312 1313.43 107.289C1311.89 106.405 1310.46 105.181 1309.69 103.527C1310.69 105.227 1312.41 106.473 1314.2 107.221C1314.23 107.221 1314.25 107.221 1314.27 107.244C1314.32 107.266 1314.36 107.266 1314.41 107.289C1314.47 107.312 1314.52 107.312 1314.59 107.334C1314.02 106.156 1313.66 104.864 1313.64 103.55C1313.64 103.255 1313.66 102.938 1313.7 102.643C1313.77 102.96 1313.86 103.278 1313.93 103.595C1314.32 105.408 1315.06 107.176 1316.04 108.762C1317.33 110.349 1318.78 111.844 1319.71 113.703C1319.98 114.337 1320.37 114.949 1320.46 115.652C1320.66 117.646 1320.37 119.55 1322.84 119.55C1322.93 119.55 1323.02 119.55 1323.11 119.55C1325.31 119.595 1325.28 116.74 1325.15 115.153C1325.13 114.269 1325.24 113.34 1325.24 112.434C1325.24 109.17 1325.85 105.68 1324.63 102.575C1324.63 102.575 1324.63 102.552 1324.6 102.552C1324.58 102.507 1324.58 102.484 1324.56 102.439C1324.56 102.416 1324.54 102.371 1324.54 102.348C1324.54 102.326 1324.54 102.326 1324.54 102.303C1324.51 102.258 1324.51 102.235 1324.51 102.212C1324.49 102.122 1324.45 102.031 1324.42 101.94C1324.42 101.918 1324.42 101.895 1324.4 101.872C1324.17 101.261 1324.02 100.626 1323.74 100.037C1323.47 99.4474 1323.27 98.8129 1323.11 98.1783C1323.52 99.0395 1323.95 99.878 1324.33 100.739V100.762C1324.54 101.215 1324.72 101.668 1324.88 102.122C1324.88 102.122 1324.88 102.144 1324.9 102.144C1324.92 102.19 1324.94 102.235 1324.97 102.28C1325.01 102.371 1325.06 102.462 1325.08 102.552C1325.15 102.711 1325.22 102.892 1325.28 103.051C1325.33 103.142 1325.35 103.232 1325.4 103.323V103.346C1325.42 103.414 1325.44 103.504 1325.49 103.572C1325.49 103.595 1325.51 103.618 1325.51 103.64C1325.51 103.663 1325.53 103.663 1325.53 103.685C1325.53 103.663 1325.53 103.64 1325.56 103.618C1325.58 103.572 1325.58 103.527 1325.6 103.482C1325.62 103.436 1325.62 103.391 1325.62 103.346V103.323C1325.62 103.278 1325.65 103.232 1325.65 103.187C1325.67 103.096 1325.69 102.983 1325.72 102.892C1325.74 102.802 1325.76 102.688 1325.78 102.598C1325.81 102.507 1325.81 102.394 1325.83 102.28C1325.85 102.19 1325.85 102.099 1325.87 102.008C1325.87 101.94 1325.9 101.85 1325.9 101.782C1325.9 101.759 1325.9 101.714 1325.92 101.691C1325.92 101.668 1325.94 101.646 1325.94 101.646C1326.08 100.785 1325.99 99.946 1325.53 99.1981ZM1320.66 86.8919C1320.48 88.1157 1319.75 89.2035 1319.71 90.4727C1319.62 90.994 1319.62 91.5605 1319.6 92.1271C1319.41 94.2122 1319.08 96.1612 1316.36 96.3879C1312.53 96.7505 1312.25 92.8524 1312.5 89.8381C1312.68 88.7503 1313 87.7078 1313.34 86.6426C1313.5 85.8267 1313.5 84.9881 1313.75 84.1723C1314.27 82.7445 1315.04 81.4073 1315.54 79.9568C1315.27 81.6566 1314.18 83.1524 1313.89 84.8748C1313.77 85.5547 1313.86 86.2346 1313.68 86.8919C1313.27 88.1384 1312.84 89.3848 1312.77 90.6993C1312.71 91.8098 1312.8 93.283 1313.34 94.3708V94.3935C1313.41 94.5521 1313.5 94.6881 1313.59 94.8241C1313.61 94.8467 1313.64 94.8694 1313.64 94.8694C1313.75 95.0281 1313.89 95.164 1314.02 95.2774C1314.54 95.7306 1315.24 96.0026 1315.92 96.0026C1319.35 96.0252 1319.12 93.147 1319.28 90.586C1319.3 89.7928 1319.57 89.0449 1319.87 88.3197C1319.87 88.3197 1319.87 88.3197 1319.87 88.297C1320.03 87.9797 1320.19 87.6398 1320.32 87.3225C1320.5 86.8919 1320.68 86.4386 1320.8 85.9853C1320.8 86.3026 1320.75 86.5972 1320.66 86.8919Z"
            fill="#041B09" />
        <path
            d="M-36 90.7109C-36 90.7109 160.807 89.4779 171.453 91.4652C182.099 93.4524 187.067 97.0794 194.591 107.3C201.972 117.52 221.703 91.6116 221.703 91.6116C221.703 91.6116 223.974 84.3723 231.781 83.0948C239.588 82.1011 243.988 83.5206 243.988 83.5206C243.988 83.5206 256.622 40 261.59 40C266.7 40 268.261 62.2858 268.261 62.2858C268.261 62.2858 279.617 61.2921 280.753 65.5506C281.888 69.809 289.979 79.0356 289.979 79.0356C289.979 79.0356 312.549 119.956 331.712 124.356C350.875 128.615 383.523 104.846 399.989 109.53C416.455 114.214 424.972 142.888 436.753 145.301C448.535 147.714 474.795 151.972 483.738 160.631C493.106 161.483 499.068 170.851 550.027 170.425C600.987 170 658.191 153.96 675.083 153.96C691.975 153.96 726.752 176.245 748.044 176.245C748.044 176.245 754.29 180.504 761.813 167.161C772.459 166.735 783.389 162.902 783.389 162.902C783.389 162.902 799.429 167.161 814.334 166.877C829.238 166.451 842.155 161.341 842.155 161.341C842.155 161.341 855.073 150.411 861.318 148.849C867.564 147.288 871.113 146.152 871.113 146.152C871.113 146.152 875.087 142.178 878.494 141.894C892.121 140.758 888.288 146.152 918.097 140.758C947.906 135.222 1047.3 177.01 1061.36 160.119C1072.43 149.199 1072.43 140.174 1072.43 140.174C1072.43 140.174 1068.5 114.699 1074.5 105.199C1080.5 95.6992 1092.16 122.431 1105.79 122.431C1154 122.431 1190.6 146.632 1218 122.431C1245.4 109.088 1273.5 109.199 1273.5 109.199C1273.5 109.199 1313.5 118.688 1324.5 115.699C1335.5 112.711 1345.78 91.4652 1363.11 91.4652C1380.45 91.4652 1477 91.4652 1477 91.4652V216.299L-36 218.299C-36 218.299 -36 89.1494 -36 90.7109Z"
            fill="url(#paint0_linear_44_1532)" />
        <path
            d="M570.987 144.782C569.896 140.745 566.112 140.011 565.771 139.944C563.248 136.307 559.703 134.271 556.157 134.104C550.191 133.804 545.759 132.903 539.35 132.303C536.043 132.002 532.736 131.001 529.668 130.634C529.906 130.467 530.077 130.334 530.077 130.234C528.986 130.067 527.963 130.434 527.759 130.501C527.929 130.434 528.952 129.967 528.747 129.6C528.065 129.466 527.281 129.666 526.565 129.933C526.497 129.7 526.327 129.466 526.02 129.199C526.02 129.199 523.974 129.633 522.031 132.002C521.929 132.102 521.793 132.202 521.656 132.303C516.747 136.04 512.929 137.074 508.667 138.276C507.303 138.643 506.042 139.143 504.985 139.844C503.758 139.443 501.508 139.41 501.065 140.144C500.621 140.912 501.746 142.447 502.087 142.914C501.508 144.082 501.167 145.517 501.167 147.218C501.167 148.253 501.065 149.154 500.928 149.955C500.894 150.121 500.86 150.322 500.826 150.489C500.826 150.522 500.826 150.555 500.792 150.589C500.792 150.655 500.758 150.722 500.758 150.789C500.758 150.822 500.724 150.856 500.724 150.889C500.69 150.956 500.69 151.022 500.655 151.089C500.655 151.123 500.621 151.156 500.621 151.189C500.553 151.423 500.485 151.656 500.417 151.857V151.89C500.383 151.957 500.383 152.024 500.349 152.09C500.349 152.124 500.315 152.124 500.315 152.157C500.28 152.224 500.28 152.257 500.246 152.324C500.246 152.357 500.246 152.357 500.212 152.391C500.178 152.457 500.178 152.491 500.144 152.557C500.042 152.758 499.974 152.924 499.871 153.091C499.871 153.091 499.871 153.125 499.837 153.125C499.803 153.158 499.803 153.225 499.769 153.258C499.769 153.258 499.769 153.292 499.735 153.292C499.701 153.325 499.701 153.392 499.667 153.425C499.667 153.425 499.667 153.425 499.667 153.458C499.599 153.592 499.496 153.725 499.428 153.825C499.428 153.825 499.428 153.859 499.394 153.859C499.36 153.892 499.36 153.926 499.326 153.959C499.326 153.959 499.326 153.992 499.292 153.992C499.258 154.026 499.258 154.059 499.224 154.092C499.224 154.092 499.224 154.126 499.19 154.126C497.451 153.558 497.587 156.628 499.803 157.329C499.905 157.396 500.008 157.429 500.11 157.463C503.451 158.931 506.928 156.695 506.928 156.695C511.633 157.363 515.451 156.128 517.974 155.26C519.474 154.76 521.111 155.627 521.417 157.162C523.02 164.704 527.759 166.939 527.213 168.441C527.009 169.042 524.486 169.309 524.247 171.911C524.145 172.946 529.497 173.98 532.395 172.345C532.6 172.212 532.804 172.078 533.009 171.911C535.054 172.178 538.259 172.412 539.384 171.644C540.816 170.677 544.055 165.671 545.486 162.802C546.441 162.702 547.361 162.601 548.18 162.435C548.589 163.336 549.032 164.503 549.168 165.605C549.305 166.606 549.339 166.873 547.498 168.107C546.202 168.975 545.998 169.842 546.305 170.41C546.952 171.611 550.6 172.011 553.737 171.644C553.907 173.013 557.93 172.946 562.771 172.846C564.783 172.812 564.51 171.644 565.976 164.07C567.408 156.695 569.589 155.127 568.976 149.421C568.805 147.919 568.533 146.484 568.124 145.183C569.589 145.35 571.158 145.35 570.987 144.782Z"
            fill="#021304" />
    </g>
    <defs>
        <filter id="filter0_d_44_1532" x="-66" y="0" width="1573" height="238.299" filterUnits="userSpaceOnUse"
            color-interpolation-filters="sRGB">
            <feFlood flood-opacity="0" result="BackgroundImageFix" />
            <feColorMatrix in="SourceAlpha" type="matrix" values="0 0 0 0 0 0 0 0 0 0 0 0 0 0 0 0 0 0 127 0"
                result="hardAlpha" />
            <feOffset dy="-10" />
            <feGaussianBlur stdDeviation="15" />
            <feComposite in2="hardAlpha" operator="out" />
            <feColorMatrix type="matrix" values="0 0 0 0 0.0751081 0 0 0 0 0.218784 0 0 0 0 0.0591442 0 0 0 0.7 0" />
            <feBlend mode="normal" in2="BackgroundImageFix" result="effect1_dropShadow_44_1532" />
            <feBlend mode="normal" in="SourceGraphic" in2="effect1_dropShadow_44_1532" result="shape" />
        </filter>
        <linearGradient id="paint0_linear_44_1532" x1="-36" y1="129.15" x2="1477" y2="129.15"
            gradientUnits="userSpaceOnUse">
            <stop stop-color="#020E04" />
            <stop offset="1" stop-color="#0F1E11" />
        </linearGradient>
    </defs>
</svg>