<svg xmlns="http://www.w3.org/2000/svg" xmlns:xlink="http://www.w3.org/1999/xlink" width="104" height="7.1400146484375" viewBox="0 0 104 7.1400146484375" fill="none"><g opacity="1"  transform="translate(0 0)"><path id="Vector" fill-rule="evenodd" style="fill:#64748B" opacity="1" d="M10.7045 7.13761C11.1318 7.13761 11.4167 6.95955 11.4167 6.69246L11.4167 0.445151C11.4167 0.17806 11.1318 0 10.7045 0C10.2771 0 9.99222 0.17806 9.99222 0.445151L9.99222 6.69029C9.99222 6.95738 10.2771 7.13761 10.7045 7.13761ZM3.56816 7.13761L4.99611 7.13761C5.42346 7.13761 5.70835 6.95955 5.70835 6.69246L5.70835 0.445151C5.70835 0.17806 5.42346 0 4.99611 0L3.56816 0C3.14081 0 2.85591 0.17806 2.85591 0.445151L2.85591 6.69029C2.85591 6.95738 3.14081 7.13761 3.56816 7.13761ZM7.84855 7.13761C8.2759 7.13761 8.56079 6.95955 8.56079 6.69246L8.56079 0.445151C8.56079 0.17806 8.2759 0 7.84855 0C7.42121 0 7.13631 0.17806 7.13631 0.445151L7.13631 6.69029C7.13631 6.95738 7.42121 7.13761 7.84855 7.13761ZM13.5604 7.13761L14.9883 7.13761C15.4157 7.13761 15.7006 6.95955 15.7006 6.69246L15.7006 0.445151C15.7006 0.17806 15.4157 0 14.9883 0L13.5604 0C13.133 0 12.8481 0.17806 12.8481 0.445151L12.8481 6.69029C12.8447 6.95738 13.1296 7.13761 13.5604 7.13761ZM17.8408 0C17.4134 0 17.1285 0.17806 17.1285 0.445151L17.1285 6.69029C17.1285 6.95738 17.4134 7.13544 17.8408 7.13544C18.2681 7.13544 18.553 6.95738 18.553 6.69029L18.553 0.445151C18.5565 0.17806 18.2681 0 17.8408 0ZM0.712241 7.13761C1.13959 7.13761 1.42448 6.95955 1.42448 6.69246L1.42448 0.445151C1.42448 0.17806 1.13959 0 0.712241 0C0.284896 0 0 0.17806 0 0.445151L0 6.69029C0 6.95738 0.284896 7.13761 0.712241 7.13761Z"></path><path id="Vector" fill-rule="evenodd" style="fill:#64748B" opacity="1" d="M30.6896 7.13761C31.1169 7.13761 31.4018 6.95955 31.4018 6.69246L31.4018 0.445151C31.4018 0.17806 31.1169 0 30.6896 0C30.2623 0 29.9774 0.17806 29.9774 0.445151L29.9774 6.69029C29.9774 6.95738 30.2623 7.13761 30.6896 7.13761ZM23.5533 7.13761L24.9812 7.13761C25.4086 7.13761 25.6935 6.95955 25.6935 6.69246L25.6935 0.445151C25.6935 0.17806 25.4086 0 24.9812 0L23.5533 0C23.1259 0 22.841 0.17806 22.841 0.445151L22.841 6.69029C22.841 6.95738 23.1259 7.13761 23.5533 7.13761ZM27.8337 7.13761C28.261 7.13761 28.5459 6.95955 28.5459 6.69246L28.5459 0.445151C28.5459 0.17806 28.261 0 27.8337 0C27.4063 0 27.1214 0.17806 27.1214 0.445151L27.1214 6.69029C27.1214 6.95738 27.4063 7.13761 27.8337 7.13761ZM33.5455 7.13761L34.9735 7.13761C35.4008 7.13761 35.6857 6.95955 35.6857 6.69246L35.6857 0.445151C35.6857 0.17806 35.4008 0 34.9735 0L33.5455 0C33.1182 0 32.8333 0.17806 32.8333 0.445151L32.8333 6.69029C32.8298 6.95738 33.1147 7.13761 33.5455 7.13761ZM37.8259 0C37.3986 0 37.1137 0.17806 37.1137 0.445151L37.1137 6.69029C37.1137 6.95738 37.3986 7.13544 37.8259 7.13544C38.2533 7.13544 38.5381 6.95738 38.5381 6.69029L38.5381 0.445151C38.5416 0.17806 38.2533 0 37.8259 0ZM20.6974 7.13761C21.1247 7.13761 21.4096 6.95955 21.4096 6.69246L21.4096 0.445151C21.4096 0.17806 21.1247 0 20.6974 0C20.27 0 19.9851 0.17806 19.9851 0.445151L19.9851 6.69029C19.9851 6.95738 20.27 7.13761 20.6974 7.13761Z"></path><path id="Vector" fill-rule="evenodd" style="fill:#64748B" opacity="1" d="M50.6752 7.13761C51.1026 7.13761 51.3875 6.95955 51.3875 6.69246L51.3875 0.445151C51.3875 0.17806 51.1026 0 50.6752 0C50.2479 0 49.963 0.17806 49.963 0.445151L49.963 6.69029C49.963 6.95738 50.2479 7.13761 50.6752 7.13761ZM43.5389 7.13761L44.9669 7.13761C45.3942 7.13761 45.6791 6.95955 45.6791 6.69246L45.6791 0.445151C45.6791 0.17806 45.3942 0 44.9669 0L43.5389 0C43.1116 0 42.8267 0.17806 42.8267 0.445151L42.8267 6.69029C42.8267 6.95738 43.1116 7.13761 43.5389 7.13761ZM47.8193 7.13761C48.2467 7.13761 48.5316 6.95955 48.5316 6.69246L48.5316 0.445151C48.5316 0.17806 48.2467 0 47.8193 0C47.392 0 47.1071 0.17806 47.1071 0.445151L47.1071 6.69029C47.1071 6.95738 47.392 7.13761 47.8193 7.13761ZM53.5311 7.13761L54.9591 7.13761C55.3864 7.13761 55.6713 6.95955 55.6713 6.69246L55.6713 0.445151C55.6713 0.17806 55.3864 0 54.9591 0L53.5311 0C53.1038 0 52.8189 0.17806 52.8189 0.445151L52.8189 6.69029C52.8154 6.95738 53.1003 7.13761 53.5311 7.13761ZM57.8115 0C57.3842 0 57.0993 0.17806 57.0993 0.445151L57.0993 6.69029C57.0993 6.95738 57.3842 7.13544 57.8115 7.13544C58.2389 7.13544 58.5238 6.95738 58.5238 6.69029L58.5238 0.445151C58.5272 0.17806 58.2389 0 57.8115 0ZM40.683 7.13761C41.1103 7.13761 41.3952 6.95955 41.3952 6.69246L41.3952 0.445151C41.3952 0.17806 41.1103 0 40.683 0C40.2557 0 39.9708 0.17806 39.9708 0.445151L39.9708 6.69029C39.9708 6.95738 40.2557 7.13761 40.683 7.13761Z"></path><path id="Vector" fill-rule="evenodd" style="fill:#64748B" opacity="1" d="M83.3029 7.13761C83.7303 7.13761 84.0152 6.95955 84.0152 6.69246L84.0152 0.445151C84.0152 0.17806 83.7303 0 83.3029 0C82.8756 0 82.5907 0.17806 82.5907 0.445151L82.5907 6.69029C82.5907 6.95738 82.8756 7.13761 83.3029 7.13761ZM76.1666 7.13761L77.5946 7.13761C78.0219 7.13761 78.3068 6.95955 78.3068 6.69246L78.3068 0.445151C78.3068 0.17806 78.0219 0 77.5946 0L76.1666 0C75.7393 0 75.4544 0.17806 75.4544 0.445151L75.4544 6.69029C75.4544 6.95738 75.7393 7.13761 76.1666 7.13761ZM80.447 7.13761C80.8743 7.13761 81.1592 6.95955 81.1592 6.69246L81.1592 0.445151C81.1592 0.17806 80.8743 0 80.447 0C80.0197 0 79.7348 0.17806 79.7348 0.445151L79.7348 6.69029C79.7348 6.95738 80.0197 7.13761 80.447 7.13761ZM86.1588 7.13761L87.5868 7.13761C88.0141 7.13761 88.299 6.95955 88.299 6.69246L88.299 0.445151C88.299 0.17806 88.0141 0 87.5868 0L86.1588 0C85.7315 0 85.4466 0.17806 85.4466 0.445151L85.4466 6.69029C85.4431 6.95738 85.728 7.13761 86.1588 7.13761ZM90.4392 0C90.0119 0 89.727 0.17806 89.727 0.445151L89.727 6.69029C89.727 6.95738 90.0119 7.13544 90.4392 7.13544C90.8666 7.13544 91.1515 6.95738 91.1515 6.69029L91.1515 0.445151C91.1549 0.17806 90.8666 0 90.4392 0ZM73.3107 7.13761C73.738 7.13761 74.0229 6.95955 74.0229 6.69246L74.0229 0.445151C74.0229 0.17806 73.738 0 73.3107 0C72.8833 0 72.5984 0.17806 72.5984 0.445151L72.5984 6.69029C72.5984 6.95738 72.8833 7.13761 73.3107 7.13761Z"></path><path id="Vector" fill-rule="evenodd" style="fill:#64748B" opacity="1" d="M70.6604 7.13761C71.0877 7.13761 71.3726 6.95955 71.3726 6.69246L71.3726 0.445151C71.3726 0.17806 71.0877 0 70.6604 0C70.233 0 69.9481 0.17806 69.9481 0.445151L69.9481 6.69029C69.9481 6.95738 70.233 7.13761 70.6604 7.13761ZM63.524 7.13761L64.952 7.13761C65.3793 7.13761 65.6642 6.95955 65.6642 6.69246L65.6642 0.445151C65.6642 0.17806 65.3793 0 64.952 0L63.524 0C63.0967 0 62.8118 0.17806 62.8118 0.445151L62.8118 6.69029C62.8118 6.95738 63.0967 7.13761 63.524 7.13761ZM67.8044 7.13761C68.2318 7.13761 68.5167 6.95955 68.5167 6.69246L68.5167 0.445151C68.5167 0.17806 68.2318 0 67.8044 0C67.3771 0 67.0922 0.17806 67.0922 0.445151L67.0922 6.69029C67.0922 6.95738 67.3771 7.13761 67.8044 7.13761ZM60.6681 7.13761C61.0955 7.13761 61.3804 6.95955 61.3804 6.69246L61.3804 0.445151C61.3804 0.17806 61.0955 0 60.6681 0C60.2408 0 59.9559 0.17806 59.9559 0.445151L59.9559 6.69029C59.9559 6.95738 60.2408 7.13761 60.6681 7.13761Z"></path><path id="Vector" fill-rule="evenodd" style="fill:#64748B" opacity="1" d="M103.288 7.13761C103.715 7.13761 104 6.95955 104 6.69246L104 0.445151C104 0.17806 103.715 0 103.288 0C102.86 0 102.575 0.17806 102.575 0.445151L102.575 6.69029C102.575 6.95738 102.86 7.13761 103.288 7.13761ZM96.1512 7.13761L97.5792 7.13761C98.0065 7.13761 98.2914 6.95955 98.2914 6.69246L98.2914 0.445151C98.2914 0.17806 98.0065 0 97.5792 0L96.1512 0C95.7239 0 95.439 0.17806 95.439 0.445151L95.439 6.69029C95.439 6.95738 95.7239 7.13761 96.1512 7.13761ZM100.432 7.13761C100.859 7.13761 101.144 6.95955 101.144 6.69246L101.144 0.445151C101.144 0.17806 100.859 0 100.432 0C100.004 0 99.7194 0.17806 99.7194 0.445151L99.7194 6.69029C99.7194 6.95738 100.004 7.13761 100.432 7.13761ZM93.2953 7.13761C93.7227 7.13761 94.0076 6.95955 94.0076 6.69246L94.0076 0.445151C94.0076 0.17806 93.7227 0 93.2953 0C92.868 0 92.5831 0.17806 92.5831 0.445151L92.5831 6.69029C92.5831 6.95738 92.868 7.13761 93.2953 7.13761Z"></path></g></svg>