<svg width="36" height="36" viewBox="0 0 36 36" fill="none" xmlns="http://www.w3.org/2000/svg">
    <path
        d="M18 36C27.9411 36 36 27.9411 36 18C36 8.05887 27.9411 0 18 0C8.05887 0 0 8.05887 0 18C0 27.9411 8.05887 36 18 36Z"
        fill="url(#paint0_linear_44_1731)" />
    <path fill-rule="evenodd" clip-rule="evenodd"
        d="M22.8982 6.05318C22.8195 6.08886 22.767 6.14526 22.7347 6.189C22.6972 6.23987 22.6708 6.29544 22.6516 6.34353C22.6131 6.43929 22.5825 6.55806 22.5548 6.6778C22.5356 6.76074 22.5169 6.84798 22.4972 6.93981C22.4563 7.13095 22.411 7.34212 22.3483 7.57542C22.1739 8.22401 21.8898 8.9324 21.3252 9.42538C20.3762 8.99614 19.2743 8.75268 18.0013 8.75268C16.7238 8.75268 15.6185 8.99438 14.667 9.42076C14.1061 8.92806 13.8238 8.22219 13.6505 7.57567C13.588 7.34227 13.543 7.13118 13.5022 6.93996C13.4826 6.84826 13.464 6.76092 13.4449 6.67808C13.4173 6.55835 13.3868 6.43956 13.3484 6.34377C13.3292 6.29566 13.3029 6.24005 13.2654 6.18913C13.2331 6.14534 13.1806 6.08888 13.1018 6.05318C12.9137 5.95353 12.7228 6.00977 12.5938 6.09228C12.464 6.17527 12.3538 6.3059 12.2635 6.44743C12.0795 6.73583 11.9232 7.15588 11.8426 7.64151C11.7224 8.36614 11.7655 9.27293 12.1728 10.1597C11.6527 9.96225 11.0239 9.77789 10.3997 9.65538C9.83885 9.54529 9.26251 9.48108 8.75318 9.50641C8.25462 9.53121 7.7656 9.64424 7.43582 9.9424L7.34144 10.0277L7.33616 10.1552C7.28081 11.4897 8.05181 12.6782 8.79756 13.5049C9.17544 13.9237 9.55919 14.2635 9.85582 14.4993C10.0042 14.6172 10.1325 14.7105 10.2293 14.7756C10.2362 14.7803 10.243 14.7848 10.2497 14.7893C9.44901 17.1668 9.30456 19.7646 9.44143 21.6153C8.85253 22.5004 8.54164 23.6012 8.6448 24.9485L8.64649 24.9706L8.65136 24.9922C9.29123 27.8312 11.5373 29.0724 13.6128 29.6033C15.4598 30.0758 17.2407 30.0045 17.7665 29.9835C17.8305 29.9809 17.876 29.9791 17.9007 29.9791C19.4239 29.9791 21.5042 29.8219 23.3154 29.1305C25.1323 28.4369 26.722 27.1855 27.1518 24.9836C27.3324 24.0578 27.1989 22.8782 26.5559 21.7754C26.6985 19.906 26.5541 17.2377 25.7305 14.8023C25.7434 14.7938 25.7569 14.7849 25.7707 14.7756C25.8675 14.7105 25.9959 14.6172 26.1442 14.4993C26.4408 14.2635 26.8246 13.9237 27.2025 13.5049C27.9482 12.6782 28.7192 11.4897 28.6639 10.1552L28.6586 10.0277L28.5642 9.9424C28.2344 9.64424 27.7454 9.53121 27.2468 9.50641C26.7375 9.48108 26.1612 9.54529 25.6003 9.65538C24.9762 9.77789 24.3473 9.96225 23.8273 10.1597C24.2346 9.27293 24.2776 8.36614 24.1574 7.64151C24.0769 7.15588 23.9205 6.73583 23.7365 6.44743C23.6462 6.3059 23.5361 6.17527 23.4063 6.09228C23.2772 6.00977 23.0863 5.95353 22.8982 6.05318ZM25.5165 14.215C25.5872 14.1646 25.6729 14.1005 25.7696 14.0237C26.0452 13.8046 26.4035 13.4873 26.7551 13.0976C27.4378 12.3408 28.0513 11.3599 28.0628 10.3201C27.8789 10.205 27.5961 10.131 27.217 10.1121C26.7736 10.0901 26.2494 10.1459 25.7161 10.2506C24.8461 10.4214 24.0021 10.7115 23.4963 10.9598C24.2636 11.7491 24.855 12.6955 25.305 13.7083C25.3792 13.8753 25.4497 14.0444 25.5165 14.215ZM22.9621 10.461C23.6008 9.53759 23.6914 8.52134 23.5619 7.74121C23.4916 7.31714 23.3587 6.9791 23.2282 6.77472C23.2083 6.74343 23.1895 6.71707 23.1723 6.69506C23.1632 6.72947 23.1534 6.76929 23.1428 6.81507C23.1274 6.88187 23.1106 6.9599 23.0921 7.04614C23.0496 7.24409 22.9978 7.48544 22.9311 7.73355C22.7633 8.35782 22.4791 9.12197 21.8974 9.71664C22.1586 9.8652 22.4069 10.0289 22.6426 10.2061C22.7519 10.2883 22.8584 10.3733 22.9621 10.461ZM21.3082 10.0884L21.3688 10.166L21.4046 10.1378C21.7166 10.301 22.0083 10.4867 22.2809 10.6917C23.3762 11.5153 24.1793 12.6626 24.7537 13.9555C25.7699 16.2425 26.0535 18.9472 25.9928 20.9883C25.888 20.867 25.7758 20.7478 25.6558 20.6312C24.2493 19.2652 21.8087 18.2947 17.9008 18.4559C16.2953 18.3891 13.9099 18.6197 11.9609 19.5467C11.2334 19.8927 10.5588 20.3395 10.0087 20.9111C9.95216 19.1695 10.1484 16.9474 10.8437 14.9185H10.8575V14.8786C10.9733 14.5442 11.1028 14.2152 11.247 13.8946C11.8214 12.6176 12.6243 11.4858 13.7197 10.6734C13.9893 10.4735 14.2777 10.2921 14.586 10.1324L14.6286 10.166L14.7 10.0748C15.617 9.62277 16.7067 9.35915 18.0013 9.35915C19.2985 9.35915 20.39 9.62792 21.3082 10.0884ZM14.0936 9.70996C13.5164 9.11617 13.2342 8.35529 13.0676 7.7333C13.0011 7.48507 12.9495 7.24376 12.9072 7.04577C12.8888 6.95957 12.8721 6.88156 12.8567 6.81479C12.8463 6.76924 12.8366 6.7296 12.8275 6.69532C12.8104 6.71728 12.7917 6.74355 12.7718 6.77472C12.6414 6.9791 12.5084 7.31714 12.4381 7.74121C12.3093 8.51759 12.3984 9.52782 13.0288 10.4476C13.1366 10.3574 13.2473 10.2699 13.3611 10.1855C13.5931 10.0135 13.8371 9.85452 14.0936 9.70996ZM12.4857 10.951C11.9781 10.7047 11.1437 10.4194 10.2839 10.2506C9.75057 10.1459 9.22642 10.0901 8.78304 10.1121C8.40392 10.131 8.12114 10.205 7.93723 10.3201C7.94876 11.3599 8.56221 12.3408 9.2449 13.0976C9.59649 13.4873 9.95479 13.8046 10.2304 14.0237C10.3182 14.0935 10.3969 14.1527 10.4636 14.2007C10.5368 14.0133 10.6145 13.8278 10.6969 13.6448C11.1432 12.6526 11.7284 11.7258 12.4857 10.951ZM25.2362 21.0672C23.9852 19.8522 21.7253 18.9028 17.9132 19.0624L17.9005 19.0629L17.8878 19.0624C16.3408 18.9963 14.0549 19.2217 12.2192 20.0948C11.3044 20.5299 10.5161 21.1188 9.98016 21.8978C9.4507 22.6675 9.1546 23.6414 9.24507 24.8798C9.81903 27.3828 11.7932 28.512 13.7618 29.0156C15.5061 29.4618 17.178 29.3987 17.738 29.3776C17.813 29.3747 17.8681 29.3727 17.9007 29.3727C19.3959 29.3727 21.3906 29.2165 23.101 28.5636C24.8057 27.9128 26.1842 26.7889 26.5593 24.8669C26.7675 23.8006 26.4888 22.2837 25.2362 21.0672Z"
        fill="white" stroke="white" />
    <defs>
        <linearGradient id="paint0_linear_44_1731" x1="8.33333" y1="7.33333" x2="29.3333" y2="29"
            gradientUnits="userSpaceOnUse">
            <stop stop-color="#53BAFF" />
            <stop offset="1" stop-color="#1645BB" />
        </linearGradient>
    </defs>
</svg>