<svg width="91" height="32" viewBox="0 0 91 32" fill="none" xmlns="http://www.w3.org/2000/svg">
    <path
        d="M80.7605 19.5C80.5902 18.6655 80.261 17.8715 79.7907 17.1615C79.123 16.1677 78.0198 15.5458 77.4532 14.475C77.1188 13.8375 77.0605 13.0844 77.1605 12.3719C77.2782 11.5302 77.65 10.7792 77.8615 9.96459C78 9.43438 77.925 9.02709 77.2719 9.12292C75.7855 9.33126 74.949 11.3271 74.6907 12.601C74.2178 14.9313 76.3219 16.6906 76.2407 18.9823C76.1365 21.9229 74.3323 24.9198 71.2625 25.4406C68.3459 25.9365 65.3844 23.9448 65.5282 20.8177C65.5843 19.6567 66.092 18.5636 66.9428 17.7717C67.7937 16.9798 68.9203 16.5518 70.0824 16.579C71.2444 16.6062 72.3498 17.0864 73.1627 17.9172C73.9756 18.7481 74.4316 19.8637 74.4334 21.026C74.4334 21.2208 74.4105 21.4188 74.4084 21.6115C75.1792 20.6542 75.45 19.0802 75.1584 17.9292C74.924 17.0042 74.3386 16.1698 74.0636 15.2552C73.624 13.7969 73.3719 12.4281 74.3448 11.0063C73.1334 10.476 71.7667 10.0969 70.4271 10.0625C64.2615 9.90313 59.073 14.75 59.0105 20.9208C58.9872 23.0785 59.6016 25.195 60.7767 27.0048C61.9517 28.8146 63.6351 30.237 65.6155 31.0937C67.5959 31.9504 69.7853 32.2032 71.9088 31.8204C74.0324 31.4375 75.9956 30.4361 77.5521 28.9417C79.8042 26.7865 81.1594 23.525 80.8938 20.4C80.8673 20.0976 80.8228 19.7971 80.7605 19.5Z"
        fill="url(#paint0_linear_44_1551)" />
    <path
        d="M35.7865 8.24375C34.1892 10.0493 32.259 12.4882 29.9958 15.5604C26.8514 19.8167 24.8931 22.434 24.1208 23.4125C25.2701 23.375 26.2212 23.3563 26.974 23.3563C27.7267 23.3563 28.8236 23.4927 30.2646 23.7656C31.7056 24.0392 32.7931 24.1757 33.5271 24.175C34.6569 24.175 35.5944 24.5281 36.3396 25.2344C37.0847 25.9406 37.4566 26.8306 37.4552 27.9042C37.4552 28.9771 37.0882 29.8622 36.3542 30.5594C35.6201 31.2566 34.6785 31.6038 33.5292 31.601C32.7757 31.601 31.6788 31.4694 30.2385 31.2063C28.7983 30.9431 27.7108 30.8111 26.976 30.8104C22.7573 30.8104 18.8122 31.1576 15.1406 31.8521C14.7322 31.9398 14.3165 31.9894 13.899 32C12.8628 32 11.9778 31.7174 11.2437 31.1521C10.4146 30.5312 10 29.7122 10 28.6948C10 27.4892 10.5934 26.3875 11.7802 25.3896C16.4684 21.4167 21.374 15.6073 26.4969 7.96146C25.3288 8.01771 24.2083 8.04583 23.1354 8.04583C20.2057 8.04139 17.2798 7.83255 14.3792 7.42083C12.0625 7.10139 10.9042 5.87743 10.9042 3.74896C10.8964 3.25855 10.9872 2.77157 11.1711 2.3169C11.355 1.86223 11.6284 1.44913 11.975 1.10208C12.6896 0.367361 13.6028 0 14.7146 0C15.6375 0 17.0358 0.0989582 18.9094 0.296875C20.783 0.494792 22.1906 0.59375 23.1323 0.59375C24.4128 0.59375 26.3337 0.513542 28.8948 0.353125C31.4559 0.192708 33.3767 0.112848 34.6573 0.113542C37.0108 0.113542 38.1875 1.07396 38.1875 2.99479C38.1875 4.68715 37.3872 6.43681 35.7865 8.24375Z"
        fill="url(#paint1_linear_44_1551)" />
    <path
        d="M57.5855 21.0313C57.5842 19.6172 57.8274 18.2135 58.3042 16.8823C57.3428 14.5334 55.5956 12.5913 53.361 11.3878C51.1265 10.1843 48.5433 9.79423 46.0531 10.2841C43.5628 10.774 41.3199 12.1136 39.7077 14.0738C38.0956 16.034 37.2142 18.4932 37.2142 21.0313C37.2142 23.5693 38.0956 26.0285 39.7077 27.9888C41.3199 29.949 43.5628 31.2885 46.0531 31.7784C48.5433 32.2683 51.1265 31.8782 53.361 30.6747C55.5956 29.4712 57.3428 27.5291 58.3042 25.1802C57.8274 23.849 57.5843 22.4453 57.5855 21.0313ZM48.1698 25.4865C47.2886 25.4867 46.4272 25.2256 45.6944 24.7361C44.9616 24.2467 44.3904 23.551 44.053 22.7369C43.7157 21.9229 43.6273 21.027 43.7991 20.1627C43.9709 19.2984 44.3951 18.5045 45.0181 17.8813C45.6412 17.2582 46.435 16.8337 47.2992 16.6617C48.1635 16.4898 49.0593 16.5779 49.8735 16.9151C50.6876 17.2523 51.3835 17.8233 51.8731 18.556C52.3627 19.2887 52.624 20.1501 52.624 21.0313C52.624 22.2127 52.1548 23.3457 51.3195 24.1812C50.4842 25.0167 49.3513 25.4862 48.1698 25.4865Z"
        fill="url(#paint2_linear_44_1551)" />
    <defs>
        <linearGradient id="paint0_linear_44_1551" x1="65.2594" y1="11.1385" x2="76.2011" y2="30.0896"
            gradientUnits="userSpaceOnUse">
            <stop stop-color="#DCF45D" />
            <stop offset="0.6" stop-color="#2BBD34" />
        </linearGradient>
        <linearGradient id="paint1_linear_44_1551" x1="14.625" y1="-0.59375" x2="33.5979" y2="32.2687"
            gradientUnits="userSpaceOnUse">
            <stop stop-color="#DCF45D" />
            <stop offset="0.6" stop-color="#2BBD34" />
        </linearGradient>
        <linearGradient id="paint2_linear_44_1551" x1="42.6865" y1="11.5438" x2="53.6417" y2="30.5188"
            gradientUnits="userSpaceOnUse">
            <stop stop-color="#DCF45D" />
            <stop offset="0.6" stop-color="#2BBD34" />
        </linearGradient>
    </defs>
</svg>