<svg width="211" height="52" viewBox="0 0 211 52" fill="none" xmlns="http://www.w3.org/2000/svg">
<g clip-path="url(#clip0_443_2378)">
<rect x="10" y="10" width="32" height="32" rx="16" fill="#6366F1"/>
<rect x="25.472" y="24.1188" width="3.2" height="21.6" transform="rotate(30 25.472 24.1188)" fill="#F8FAFC"/>
<ellipse cx="26.8577" cy="24.9188" rx="1.6" ry="0.8" transform="rotate(30 26.8577 24.9188)" fill="#E2E8F0"/>
<g filter="url(#filter0_b_443_2378)">
<path d="M31.0563 15.9821C31.7344 15.5618 32.6075 16.0659 32.5826 16.8633L32.452 21.0419C32.4425 21.347 32.5728 21.6398 32.8059 21.8368L35.9986 24.5359C36.6079 25.0509 36.3983 26.0371 35.6322 26.2598L31.6177 27.4269C31.3246 27.5121 31.0865 27.7265 30.9711 28.0091L29.3908 31.8796C29.0892 32.6182 28.0866 32.7236 27.638 32.0638L25.2875 28.6065C25.1159 28.354 24.8383 28.1938 24.5339 28.1714L20.3645 27.8645C19.5689 27.8059 19.1588 26.8849 19.6477 26.2544L22.2095 22.9506C22.3965 22.7093 22.4631 22.3959 22.3904 22.0994L21.3939 18.0393C21.2037 17.2644 21.9529 16.5898 22.7036 16.86L26.6374 18.2754C26.9246 18.3788 27.2433 18.3453 27.5028 18.1845L31.0563 15.9821Z" fill="#F8FAFC"/>
</g>
</g>
<path d="M72.04 19.04L68.14 33H64.84L62.22 23.06L59.48 33L56.2 33.02L52.44 19.04H55.44L57.9 29.88L60.74 19.04H63.86L66.54 29.82L69.02 19.04H72.04ZM73.0483 27.42C73.0483 26.3 73.2683 25.3067 73.7083 24.44C74.1616 23.5733 74.7683 22.9067 75.5283 22.44C76.3016 21.9733 77.1616 21.74 78.1083 21.74C78.9349 21.74 79.6549 21.9067 80.2683 22.24C80.8949 22.5733 81.3949 22.9933 81.7683 23.5V21.92H84.5883V33H81.7683V31.38C81.4083 31.9 80.9083 32.3333 80.2683 32.68C79.6416 33.0133 78.9149 33.18 78.0883 33.18C77.1549 33.18 76.3016 32.94 75.5283 32.46C74.7683 31.98 74.1616 31.3067 73.7083 30.44C73.2683 29.56 73.0483 28.5533 73.0483 27.42ZM81.7683 27.46C81.7683 26.78 81.6349 26.2 81.3683 25.72C81.1016 25.2267 80.7416 24.8533 80.2883 24.6C79.8349 24.3333 79.3483 24.2 78.8283 24.2C78.3083 24.2 77.8283 24.3267 77.3883 24.58C76.9483 24.8333 76.5883 25.2067 76.3083 25.7C76.0416 26.18 75.9083 26.7533 75.9083 27.42C75.9083 28.0867 76.0416 28.6733 76.3083 29.18C76.5883 29.6733 76.9483 30.0533 77.3883 30.32C77.8416 30.5867 78.3216 30.72 78.8283 30.72C79.3483 30.72 79.8349 30.5933 80.2883 30.34C80.7416 30.0733 81.1016 29.7 81.3683 29.22C81.6349 28.7267 81.7683 28.14 81.7683 27.46ZM93.363 21.76C94.683 21.76 95.7496 22.18 96.563 23.02C97.3763 23.8467 97.783 25.0067 97.783 26.5V33H94.983V26.88C94.983 26 94.763 25.3267 94.323 24.86C93.883 24.38 93.283 24.14 92.523 24.14C91.7496 24.14 91.1363 24.38 90.683 24.86C90.243 25.3267 90.023 26 90.023 26.88V33H87.223V21.92H90.023V23.3C90.3963 22.82 90.8696 22.4467 91.443 22.18C92.0296 21.9 92.6696 21.76 93.363 21.76ZM99.6256 27.42C99.6256 26.3 99.8456 25.3067 100.286 24.44C100.739 23.5733 101.352 22.9067 102.126 22.44C102.899 21.9733 103.759 21.74 104.706 21.74C105.426 21.74 106.112 21.9 106.766 22.22C107.419 22.5267 107.939 22.94 108.326 23.46V18.2H111.166V33H108.326V31.36C107.979 31.9067 107.492 32.3467 106.866 32.68C106.239 33.0133 105.512 33.18 104.686 33.18C103.752 33.18 102.899 32.94 102.126 32.46C101.352 31.98 100.739 31.3067 100.286 30.44C99.8456 29.56 99.6256 28.5533 99.6256 27.42ZM108.346 27.46C108.346 26.78 108.212 26.2 107.946 25.72C107.679 25.2267 107.319 24.8533 106.866 24.6C106.412 24.3333 105.926 24.2 105.406 24.2C104.886 24.2 104.406 24.3267 103.966 24.58C103.526 24.8333 103.166 25.2067 102.886 25.7C102.619 26.18 102.486 26.7533 102.486 27.42C102.486 28.0867 102.619 28.6733 102.886 29.18C103.166 29.6733 103.526 30.0533 103.966 30.32C104.419 30.5867 104.899 30.72 105.406 30.72C105.926 30.72 106.412 30.5933 106.866 30.34C107.319 30.0733 107.679 29.7 107.946 29.22C108.212 28.7267 108.346 28.14 108.346 27.46ZM128.646 23.36C128.646 24.1067 128.466 24.8067 128.106 25.46C127.759 26.1133 127.206 26.64 126.446 27.04C125.699 27.44 124.753 27.64 123.606 27.64H121.266V33H118.466V19.04H123.606C124.686 19.04 125.606 19.2267 126.366 19.6C127.126 19.9733 127.693 20.4867 128.066 21.14C128.453 21.7933 128.646 22.5333 128.646 23.36ZM123.486 25.38C124.259 25.38 124.833 25.2067 125.206 24.86C125.579 24.5 125.766 24 125.766 23.36C125.766 22 125.006 21.32 123.486 21.32H121.266V25.38H123.486ZM133.334 23.64C133.694 23.0533 134.161 22.5933 134.734 22.26C135.321 21.9267 135.987 21.76 136.734 21.76V24.7H135.994C135.114 24.7 134.447 24.9067 133.994 25.32C133.554 25.7333 133.334 26.4533 133.334 27.48V33H130.534V21.92H133.334V23.64ZM143.44 33.18C142.373 33.18 141.413 32.9467 140.56 32.48C139.707 32 139.033 31.3267 138.54 30.46C138.06 29.5933 137.82 28.5933 137.82 27.46C137.82 26.3267 138.067 25.3267 138.56 24.46C139.067 23.5933 139.753 22.9267 140.62 22.46C141.487 21.98 142.453 21.74 143.52 21.74C144.587 21.74 145.553 21.98 146.42 22.46C147.287 22.9267 147.967 23.5933 148.46 24.46C148.967 25.3267 149.22 26.3267 149.22 27.46C149.22 28.5933 148.96 29.5933 148.44 30.46C147.933 31.3267 147.24 32 146.36 32.48C145.493 32.9467 144.52 33.18 143.44 33.18ZM143.44 30.74C143.947 30.74 144.42 30.62 144.86 30.38C145.313 30.1267 145.673 29.7533 145.94 29.26C146.207 28.7667 146.34 28.1667 146.34 27.46C146.34 26.4067 146.06 25.6 145.5 25.04C144.953 24.4667 144.28 24.18 143.48 24.18C142.68 24.18 142.007 24.4667 141.46 25.04C140.927 25.6 140.66 26.4067 140.66 27.46C140.66 28.5133 140.92 29.3267 141.44 29.9C141.973 30.46 142.64 30.74 143.44 30.74ZM154.434 24.22V29.58C154.434 29.9533 154.52 30.2267 154.694 30.4C154.88 30.56 155.187 30.64 155.614 30.64H156.914V33H155.154C152.794 33 151.614 31.8533 151.614 29.56V24.22H150.294V21.92H151.614V19.18H154.434V21.92H156.914V24.22H154.434ZM163.748 33.18C162.681 33.18 161.721 32.9467 160.868 32.48C160.014 32 159.341 31.3267 158.848 30.46C158.368 29.5933 158.128 28.5933 158.128 27.46C158.128 26.3267 158.374 25.3267 158.868 24.46C159.374 23.5933 160.061 22.9267 160.928 22.46C161.794 21.98 162.761 21.74 163.828 21.74C164.894 21.74 165.861 21.98 166.728 22.46C167.594 22.9267 168.274 23.5933 168.768 24.46C169.274 25.3267 169.528 26.3267 169.528 27.46C169.528 28.5933 169.268 29.5933 168.748 30.46C168.241 31.3267 167.548 32 166.668 32.48C165.801 32.9467 164.828 33.18 163.748 33.18ZM163.748 30.74C164.254 30.74 164.728 30.62 165.168 30.38C165.621 30.1267 165.981 29.7533 166.248 29.26C166.514 28.7667 166.648 28.1667 166.648 27.46C166.648 26.4067 166.368 25.6 165.808 25.04C165.261 24.4667 164.588 24.18 163.788 24.18C162.988 24.18 162.314 24.4667 161.768 25.04C161.234 25.6 160.968 26.4067 160.968 27.46C160.968 28.5133 161.228 29.3267 161.748 29.9C162.281 30.46 162.948 30.74 163.748 30.74ZM170.762 27.46C170.762 26.3133 170.995 25.3133 171.462 24.46C171.928 23.5933 172.575 22.9267 173.402 22.46C174.228 21.98 175.175 21.74 176.242 21.74C177.615 21.74 178.748 22.0867 179.642 22.78C180.548 23.46 181.155 24.42 181.462 25.66H178.442C178.282 25.18 178.008 24.8067 177.622 24.54C177.248 24.26 176.782 24.12 176.222 24.12C175.422 24.12 174.788 24.4133 174.322 25C173.855 25.5733 173.622 26.3933 173.622 27.46C173.622 28.5133 173.855 29.3333 174.322 29.92C174.788 30.4933 175.422 30.78 176.222 30.78C177.355 30.78 178.095 30.2733 178.442 29.26H181.462C181.155 30.46 180.548 31.4133 179.642 32.12C178.735 32.8267 177.602 33.18 176.242 33.18C175.175 33.18 174.228 32.9467 173.402 32.48C172.575 32 171.928 31.3333 171.462 30.48C170.995 29.6133 170.762 28.6067 170.762 27.46ZM188.333 33.18C187.266 33.18 186.306 32.9467 185.453 32.48C184.599 32 183.926 31.3267 183.433 30.46C182.953 29.5933 182.713 28.5933 182.713 27.46C182.713 26.3267 182.959 25.3267 183.453 24.46C183.959 23.5933 184.646 22.9267 185.513 22.46C186.379 21.98 187.346 21.74 188.413 21.74C189.479 21.74 190.446 21.98 191.313 22.46C192.179 22.9267 192.859 23.5933 193.353 24.46C193.859 25.3267 194.113 26.3267 194.113 27.46C194.113 28.5933 193.853 29.5933 193.333 30.46C192.826 31.3267 192.133 32 191.253 32.48C190.386 32.9467 189.413 33.18 188.333 33.18ZM188.333 30.74C188.839 30.74 189.313 30.62 189.753 30.38C190.206 30.1267 190.566 29.7533 190.833 29.26C191.099 28.7667 191.233 28.1667 191.233 27.46C191.233 26.4067 190.953 25.6 190.393 25.04C189.846 24.4667 189.173 24.18 188.373 24.18C187.573 24.18 186.899 24.4667 186.353 25.04C185.819 25.6 185.553 26.4067 185.553 27.46C185.553 28.5133 185.813 29.3267 186.333 29.9C186.866 30.46 187.533 30.74 188.333 30.74ZM198.867 18.2V33H196.067V18.2H198.867Z" fill="#0F172A"/>
<defs>
<filter id="filter0_b_443_2378" x="15.4365" y="11.8303" width="24.917" height="24.6714" filterUnits="userSpaceOnUse" color-interpolation-filters="sRGB">
<feFlood flood-opacity="0" result="BackgroundImageFix"/>
<feGaussianBlur in="BackgroundImageFix" stdDeviation="2"/>
<feComposite in2="SourceAlpha" operator="in" result="effect1_backgroundBlur_443_2378"/>
<feBlend mode="normal" in="SourceGraphic" in2="effect1_backgroundBlur_443_2378" result="shape"/>
</filter>
<clipPath id="clip0_443_2378">
<rect x="10" y="10" width="32" height="32" rx="16" fill="white"/>
</clipPath>
</defs>
</svg>
