<svg width="30" height="30" viewBox="0 0 30 30" fill="none" xmlns="http://www.w3.org/2000/svg">
    <path
        d="M15 30C23.2843 30 30 23.2843 30 15C30 6.71573 23.2843 0 15 0C6.71573 0 0 6.71573 0 15C0 23.2843 6.71573 30 15 30Z"
        fill="url(#paint0_linear_512_1659)" />
    <path fill-rule="evenodd" clip-rule="evenodd"
        d="M12.6487 11.152C12.4177 11.0847 12.1614 11.1042 11.9092 11.1729C11.6428 11.2455 11.3625 11.378 11.0866 11.552C10.535 11.8996 9.97503 12.4291 9.54632 13.0433C9.11853 13.6562 8.80861 14.3723 8.786 15.0932C8.76303 15.8255 9.03797 16.5444 9.74342 17.135L9.77152 17.1585L9.80541 17.1727C10.4673 17.4493 11.5001 17.5687 12.4405 17.0078C13.3866 16.4435 14.1751 15.2296 14.4279 12.9734L14.4304 12.9516L14.4288 12.9298C14.3871 12.3579 14.0688 11.9172 13.7085 11.6233C13.3674 11.3452 12.9585 11.174 12.6487 11.152ZM10.027 16.7456C10.5883 16.9697 11.4327 17.0504 12.1914 16.5978C12.9572 16.141 13.6991 15.1025 13.9453 12.9433C13.9096 12.5471 13.6862 12.225 13.4015 11.9928C13.1055 11.7514 12.7769 11.6347 12.5968 11.6284L12.5619 11.6271L12.5288 11.6162C12.4118 11.5774 12.2477 11.5769 12.0374 11.6343C11.8292 11.691 11.5931 11.7998 11.3458 11.9557C10.8511 12.2675 10.3373 12.7513 9.94357 13.3155C9.54889 13.881 9.28755 14.5086 9.26875 15.1081C9.25059 15.6868 9.45699 16.2559 10.027 16.7456Z"
        fill="white" />
    <path fill-rule="evenodd" clip-rule="evenodd"
        d="M17.1197 11.1528C17.3459 11.0852 17.5964 11.1056 17.8412 11.1748C18.1008 11.248 18.3735 11.3813 18.6417 11.5555C19.1781 11.904 19.7233 12.4338 20.1421 13.0477C20.5601 13.6605 20.8644 14.3751 20.8919 15.0934C20.9198 15.8222 20.6613 16.5406 19.9825 17.1319L19.9542 17.1565L19.9197 17.1714C19.2785 17.449 18.2763 17.5675 17.3597 17.0039C16.4401 16.4383 15.6699 15.2251 15.408 12.9727L15.4055 12.9517L15.4069 12.9305C15.4424 12.3614 15.7455 11.9209 16.0932 11.6259C16.4208 11.3479 16.8163 11.1754 17.1197 11.1528ZM19.6919 16.7475C19.1553 16.9687 18.3466 17.0476 17.6144 16.5973C16.872 16.1407 16.1457 15.1011 15.8903 12.9398C15.9217 12.5413 16.1358 12.2196 16.4073 11.9893C16.6904 11.7492 17.0038 11.6351 17.173 11.629L17.2091 11.6278L17.2432 11.6161C17.3516 11.5789 17.5066 11.5778 17.7089 11.635C17.909 11.6914 18.137 11.7999 18.3769 11.9557C18.8566 12.2674 19.3568 12.7511 19.7419 13.3157C20.1279 13.8815 20.3862 14.5103 20.4093 15.1116C20.4315 15.6925 20.2357 16.2606 19.6919 16.7475Z"
        fill="white" />
    <path fill-rule="evenodd" clip-rule="evenodd"
        d="M24.7844 8.4916C24.8342 9.478 24.3552 10.5941 23.1412 11.7375C23.317 12.1463 23.5863 12.989 23.7758 14.0432C23.9989 15.2841 24.117 16.8471 23.8328 18.3838C23.5482 19.923 22.8573 21.4464 21.4546 22.5827C20.0524 23.7185 17.9674 24.4446 14.9393 24.4446H14.9375L14.9358 24.4445C12.2249 24.4056 10.2323 23.8542 8.80333 22.964C7.37051 22.0713 6.52097 20.8481 6.08231 19.5003C5.22923 16.8791 5.93167 13.7988 6.84617 11.719C5.87713 10.5253 5.50287 9.40093 5.56144 8.43502C5.62203 7.43558 6.14481 6.6379 6.88432 6.14762C8.32411 5.19307 10.5685 5.40847 11.8627 7.44265C13.0537 7.059 14.385 6.98251 15.5711 7.04202C16.693 7.0983 17.7001 7.27709 18.3608 7.44437C18.7989 6.4107 19.6048 5.83432 20.5032 5.63576C21.4493 5.42664 22.4873 5.63773 23.3017 6.14376C24.1179 6.65093 24.7329 7.47072 24.7844 8.4916ZM18.7355 7.81092C19.0926 6.80782 19.8079 6.27971 20.6083 6.1028C21.4193 5.92355 22.3284 6.10384 23.045 6.54915C23.7599 6.99333 24.2601 7.68486 24.302 8.5155C24.3439 9.34602 23.9306 10.3777 22.685 11.5046L22.5456 11.6306L22.6355 11.7951C22.7622 12.0272 23.0821 12.9135 23.3003 14.1272C23.5172 15.3339 23.6281 16.8357 23.3578 18.2975C23.0879 19.7569 22.4406 21.1658 21.1488 22.2122C19.8568 23.2588 17.8916 23.9657 14.9411 23.966C12.2905 23.9277 10.3928 23.3889 9.06043 22.5589C7.73167 21.7311 6.94885 20.6036 6.54199 19.3535C5.7228 16.8364 6.42625 13.8099 7.34736 11.7793L7.40922 11.643L7.31263 11.5281C6.32719 10.3562 5.99247 9.3062 6.04355 8.46371C6.09448 7.62368 6.53014 6.95821 7.15293 6.54532C8.39878 5.71934 10.4113 5.89912 11.5473 7.85087L11.648 8.02391L11.8379 7.95663C12.9922 7.54747 14.3312 7.45895 15.5467 7.51993C16.7605 7.58082 17.8323 7.78979 18.4417 7.96148L18.66 8.02299L18.7355 7.81092Z"
        fill="white" />
    <path fill-rule="evenodd" clip-rule="evenodd"
        d="M12.6487 11.152C12.4177 11.0847 12.1614 11.1042 11.9092 11.1729C11.6428 11.2455 11.3625 11.378 11.0866 11.552C10.535 11.8996 9.97503 12.4291 9.54632 13.0433C9.11853 13.6562 8.80861 14.3723 8.786 15.0932C8.76303 15.8255 9.03797 16.5444 9.74342 17.135L9.77152 17.1585L9.80541 17.1727C10.4673 17.4493 11.5001 17.5687 12.4405 17.0078C13.3866 16.4435 14.1751 15.2296 14.4279 12.9734L14.4304 12.9516L14.4288 12.9298C14.3871 12.3579 14.0688 11.9172 13.7085 11.6233C13.3674 11.3452 12.9585 11.174 12.6487 11.152ZM10.027 16.7456C10.5883 16.9697 11.4327 17.0504 12.1914 16.5978C12.9572 16.141 13.6991 15.1025 13.9453 12.9433C13.9096 12.5471 13.6862 12.225 13.4015 11.9928C13.1055 11.7514 12.7769 11.6347 12.5968 11.6284L12.5619 11.6271L12.5288 11.6162C12.4118 11.5774 12.2477 11.5769 12.0374 11.6343C11.8292 11.691 11.5931 11.7998 11.3458 11.9557C10.8511 12.2675 10.3373 12.7513 9.94357 13.3155C9.54889 13.881 9.28755 14.5086 9.26875 15.1081C9.25059 15.6868 9.45699 16.2559 10.027 16.7456Z"
        stroke="white" stroke-linecap="round" />
    <path fill-rule="evenodd" clip-rule="evenodd"
        d="M17.1197 11.1528C17.3459 11.0852 17.5964 11.1056 17.8412 11.1748C18.1008 11.248 18.3735 11.3813 18.6417 11.5555C19.1781 11.904 19.7233 12.4338 20.1421 13.0477C20.5601 13.6605 20.8644 14.3751 20.8919 15.0934C20.9198 15.8222 20.6613 16.5406 19.9825 17.1319L19.9542 17.1565L19.9197 17.1714C19.2785 17.449 18.2763 17.5675 17.3597 17.0039C16.4401 16.4383 15.6699 15.2251 15.408 12.9727L15.4055 12.9517L15.4069 12.9305C15.4424 12.3614 15.7455 11.9209 16.0932 11.6259C16.4208 11.3479 16.8163 11.1754 17.1197 11.1528ZM19.6919 16.7475C19.1553 16.9687 18.3466 17.0476 17.6144 16.5973C16.872 16.1407 16.1457 15.1011 15.8903 12.9398C15.9217 12.5413 16.1358 12.2196 16.4073 11.9893C16.6904 11.7492 17.0038 11.6351 17.173 11.629L17.2091 11.6278L17.2432 11.6161C17.3516 11.5789 17.5066 11.5778 17.7089 11.635C17.909 11.6914 18.137 11.7999 18.3769 11.9557C18.8566 12.2674 19.3568 12.7511 19.7419 13.3157C20.1279 13.8815 20.3862 14.5103 20.4093 15.1116C20.4315 15.6925 20.2357 16.2606 19.6919 16.7475Z"
        stroke="white" stroke-linecap="round" />
    <path fill-rule="evenodd" clip-rule="evenodd"
        d="M24.7844 8.4916C24.8342 9.478 24.3552 10.5941 23.1412 11.7375C23.317 12.1463 23.5863 12.989 23.7758 14.0432C23.9989 15.2841 24.117 16.8471 23.8328 18.3838C23.5482 19.923 22.8573 21.4464 21.4546 22.5827C20.0524 23.7185 17.9674 24.4446 14.9393 24.4446H14.9375L14.9358 24.4445C12.2249 24.4056 10.2323 23.8542 8.80333 22.964C7.37051 22.0713 6.52097 20.8481 6.08231 19.5003C5.22923 16.8791 5.93167 13.7988 6.84617 11.719C5.87713 10.5253 5.50287 9.40093 5.56144 8.43502C5.62203 7.43558 6.14481 6.6379 6.88432 6.14762C8.32411 5.19307 10.5685 5.40847 11.8627 7.44265C13.0537 7.059 14.385 6.98251 15.5711 7.04202C16.693 7.0983 17.7001 7.27709 18.3608 7.44437C18.7989 6.4107 19.6048 5.83432 20.5032 5.63576C21.4493 5.42664 22.4873 5.63773 23.3017 6.14376C24.1179 6.65093 24.7329 7.47072 24.7844 8.4916ZM18.7355 7.81092C19.0926 6.80782 19.8079 6.27971 20.6083 6.1028C21.4193 5.92355 22.3284 6.10384 23.045 6.54915C23.7599 6.99333 24.2601 7.68486 24.302 8.5155C24.3439 9.34602 23.9306 10.3777 22.685 11.5046L22.5456 11.6306L22.6355 11.7951C22.7622 12.0272 23.0821 12.9135 23.3003 14.1272C23.5172 15.3339 23.6281 16.8357 23.3578 18.2975C23.0879 19.7569 22.4406 21.1658 21.1488 22.2122C19.8568 23.2588 17.8916 23.9657 14.9411 23.966C12.2905 23.9277 10.3928 23.3889 9.06043 22.5589C7.73167 21.7311 6.94885 20.6036 6.54199 19.3535C5.7228 16.8364 6.42625 13.8099 7.34736 11.7793L7.40922 11.643L7.31263 11.5281C6.32719 10.3562 5.99247 9.3062 6.04355 8.46371C6.09448 7.62368 6.53014 6.95821 7.15293 6.54532C8.39878 5.71934 10.4113 5.89912 11.5473 7.85087L11.648 8.02391L11.8379 7.95663C12.9922 7.54747 14.3312 7.45895 15.5467 7.51993C16.7605 7.58082 17.8323 7.78979 18.4417 7.96148L18.66 8.02299L18.7355 7.81092Z"
        stroke="white" stroke-linecap="round" />
    <defs>
        <linearGradient id="paint0_linear_512_1659" x1="7.22222" y1="7.77778" x2="23.0556" y2="23.8889"
            gradientUnits="userSpaceOnUse">
            <stop stop-color="#0ED19A" />
            <stop offset="1" stop-color="#007730" />
        </linearGradient>
    </defs>
</svg>