<svg width="54" height="54" viewBox="0 0 54 54" fill="none" xmlns="http://www.w3.org/2000/svg">
<path d="M27 54C41.9117 54 54 41.9117 54 27C54 12.0883 41.9117 0 27 0C12.0883 0 0 12.0883 0 27C0 41.9117 12.0883 54 27 54Z" fill="url(#paint0_linear_44_2348)"/>
<path fill-rule="evenodd" clip-rule="evenodd" d="M22.7677 20.0734C22.3519 19.9523 21.8905 19.9873 21.4367 20.111C20.957 20.2417 20.4525 20.4803 19.9559 20.7933C18.963 21.4192 17.9551 22.3721 17.1834 23.4777C16.4134 24.581 15.8555 25.8699 15.8148 27.1675C15.7735 28.4856 16.2684 29.7798 17.5382 30.8428L17.5888 30.8851L17.6498 30.9106C18.8412 31.4086 20.7002 31.6235 22.3929 30.6138C24.0958 29.5981 25.5153 27.413 25.9703 23.352L25.9747 23.3128L25.9718 23.2734C25.8967 22.244 25.3238 21.4507 24.6753 20.9218C24.0613 20.4211 23.3253 20.113 22.7677 20.0734ZM18.0486 30.1419C19.0589 30.5452 20.5789 30.6904 21.9445 29.8759C23.323 29.0537 24.6584 27.1843 25.1016 23.2977C25.0373 22.5846 24.6352 22.0048 24.1228 21.5868C23.5899 21.1523 22.9985 20.9423 22.6742 20.9308L22.6115 20.9286L22.5519 20.9089C22.3414 20.8391 22.046 20.8383 21.6673 20.9415C21.2925 21.0436 20.8676 21.2395 20.4225 21.5201C19.532 22.0813 18.6072 22.9521 17.8985 23.9676C17.188 24.9855 16.7176 26.1152 16.6838 27.1943C16.6511 28.236 17.0226 29.2604 18.0486 30.1419Z" fill="white"/>
<path fill-rule="evenodd" clip-rule="evenodd" d="M30.8155 20.0749C31.2227 19.9532 31.6736 19.99 32.1143 20.1144C32.5814 20.2462 33.0723 20.4861 33.5551 20.7998C34.5206 21.427 35.5019 22.3807 36.2558 23.4857C37.0083 24.5887 37.5559 25.875 37.6054 27.168C37.6557 28.4798 37.1904 29.7729 35.9684 30.8372L35.9176 30.8815L35.8555 30.9084C34.7013 31.4081 32.8973 31.6214 31.2475 30.6068C29.5922 29.5888 28.2058 27.405 27.7344 23.3506L27.73 23.3128L27.7324 23.2747C27.7964 22.2503 28.3418 21.4574 28.9677 20.9264C29.5574 20.4261 30.2694 20.1155 30.8155 20.0749ZM35.4454 30.1453C34.4796 30.5434 33.0239 30.6855 31.706 29.875C30.3697 29.0531 29.0623 27.1818 28.6026 23.2914C28.659 22.5741 29.0446 21.9952 29.5332 21.5806C30.0427 21.1484 30.6069 20.9429 30.9114 20.9321L30.9764 20.9298L31.0379 20.9087C31.233 20.8418 31.5118 20.8399 31.876 20.9427C32.2362 21.0444 32.6467 21.2396 33.0784 21.5201C33.9419 22.081 34.8422 22.9518 35.5355 23.9681C36.2302 24.9864 36.6952 26.1183 36.7367 27.2007C36.7767 28.2464 36.4242 29.2689 35.4454 30.1453Z" fill="white"/>
<path fill-rule="evenodd" clip-rule="evenodd" d="M44.6119 15.2847C44.7015 17.0602 43.8394 19.0693 41.6541 21.1273C41.9706 21.8631 42.4553 23.38 42.7965 25.2776C43.198 27.5112 43.4107 30.3246 42.8991 33.0906C42.3867 35.8612 41.1432 38.6032 38.6182 40.6486C36.0943 42.6931 32.3413 44 26.8907 44H26.8876L26.8844 44C22.0048 43.9298 18.4181 42.9374 15.846 41.3349C13.2669 39.7282 11.7378 37.5264 10.9482 35.1004C9.41264 30.3822 10.677 24.8377 12.3231 21.0939C10.5789 18.9453 9.9052 16.9215 10.0106 15.1828C10.1197 13.3839 11.0607 11.948 12.3918 11.0655C14.9834 9.34733 19.0233 9.73505 21.353 13.3966C23.4967 12.706 25.8931 12.5683 28.028 12.6754C30.0474 12.7767 31.8603 13.0986 33.0494 13.3997C33.8381 11.5391 35.2887 10.5016 36.9057 10.1442C38.6088 9.76776 40.4771 10.1477 41.943 11.0586C43.4122 11.9715 44.5192 13.4471 44.6119 15.2847ZM33.724 14.0595C34.3667 12.2539 35.6543 11.3033 37.095 10.9849C38.5548 10.6622 40.1911 10.9867 41.4811 11.7883C42.7678 12.5878 43.6682 13.8326 43.7436 15.3277C43.8191 16.8226 43.0751 18.6797 40.8331 20.708L40.5822 20.9349L40.7438 21.231C40.972 21.6488 41.5478 23.2441 41.9406 25.4287C42.3311 27.6008 42.5307 30.304 42.044 32.9354C41.5582 35.5622 40.393 38.0983 38.0679 39.9818C35.7423 41.8657 32.2049 43.1381 26.894 43.1387C22.1229 43.0697 18.707 42.0998 16.3088 40.6058C13.917 39.1157 12.508 37.0863 11.7756 34.836C10.3011 30.3054 11.5673 24.8576 13.2253 21.2026L13.3366 20.9571L13.1628 20.7504C11.389 18.641 10.7865 16.751 10.8784 15.2345C10.9701 13.7224 11.7543 12.5246 12.8753 11.7814C15.1178 10.2946 18.7404 10.6182 20.7852 14.1314L20.9665 14.4428L21.3082 14.3217C23.386 13.5852 25.7962 13.4259 27.984 13.5357C30.1689 13.6453 32.0982 14.0214 33.1951 14.3305L33.5881 14.4412L33.724 14.0595Z" fill="white"/>
<path fill-rule="evenodd" clip-rule="evenodd" d="M22.7677 20.0734C22.3519 19.9523 21.8905 19.9873 21.4367 20.111C20.957 20.2417 20.4525 20.4803 19.9559 20.7933C18.963 21.4192 17.9551 22.3721 17.1834 23.4777C16.4134 24.581 15.8555 25.8699 15.8148 27.1675C15.7735 28.4856 16.2684 29.7798 17.5382 30.8428L17.5888 30.8851L17.6498 30.9106C18.8412 31.4086 20.7002 31.6235 22.3929 30.6138C24.0958 29.5981 25.5153 27.413 25.9703 23.352L25.9747 23.3128L25.9718 23.2734C25.8967 22.244 25.3238 21.4507 24.6753 20.9218C24.0613 20.4211 23.3253 20.113 22.7677 20.0734ZM18.0486 30.1419C19.0589 30.5452 20.5789 30.6904 21.9445 29.8759C23.323 29.0537 24.6584 27.1843 25.1016 23.2977C25.0373 22.5846 24.6352 22.0048 24.1228 21.5868C23.5899 21.1523 22.9985 20.9423 22.6742 20.9308L22.6115 20.9286L22.5519 20.9089C22.3414 20.8391 22.046 20.8383 21.6673 20.9415C21.2925 21.0436 20.8676 21.2395 20.4225 21.5201C19.532 22.0813 18.6072 22.9521 17.8985 23.9676C17.188 24.9855 16.7176 26.1152 16.6838 27.1943C16.6511 28.236 17.0226 29.2604 18.0486 30.1419Z" stroke="white" stroke-linecap="round"/>
<path fill-rule="evenodd" clip-rule="evenodd" d="M30.8155 20.0749C31.2227 19.9532 31.6736 19.99 32.1143 20.1144C32.5814 20.2462 33.0723 20.4861 33.5551 20.7998C34.5206 21.427 35.5019 22.3807 36.2558 23.4857C37.0083 24.5887 37.5559 25.875 37.6054 27.168C37.6557 28.4798 37.1904 29.7729 35.9684 30.8372L35.9176 30.8815L35.8555 30.9084C34.7013 31.4081 32.8973 31.6214 31.2475 30.6068C29.5922 29.5888 28.2058 27.405 27.7344 23.3506L27.73 23.3128L27.7324 23.2747C27.7964 22.2503 28.3418 21.4574 28.9677 20.9264C29.5574 20.4261 30.2694 20.1155 30.8155 20.0749ZM35.4454 30.1453C34.4796 30.5434 33.0239 30.6855 31.706 29.875C30.3697 29.0531 29.0623 27.1818 28.6026 23.2914C28.659 22.5741 29.0446 21.9952 29.5332 21.5806C30.0427 21.1484 30.6069 20.9429 30.9114 20.9321L30.9764 20.9298L31.0379 20.9087C31.233 20.8418 31.5118 20.8399 31.876 20.9427C32.2362 21.0444 32.6467 21.2396 33.0784 21.5201C33.9419 22.081 34.8422 22.9518 35.5355 23.9681C36.2302 24.9864 36.6952 26.1183 36.7367 27.2007C36.7767 28.2464 36.4242 29.2689 35.4454 30.1453Z" stroke="white" stroke-linecap="round"/>
<path fill-rule="evenodd" clip-rule="evenodd" d="M44.6119 15.2847C44.7015 17.0602 43.8394 19.0693 41.6541 21.1273C41.9706 21.8631 42.4553 23.38 42.7965 25.2776C43.198 27.5112 43.4107 30.3246 42.8991 33.0906C42.3867 35.8612 41.1432 38.6032 38.6182 40.6486C36.0943 42.6931 32.3413 44 26.8907 44H26.8876L26.8844 44C22.0048 43.9298 18.4181 42.9374 15.846 41.3349C13.2669 39.7282 11.7378 37.5264 10.9482 35.1004C9.41264 30.3822 10.677 24.8377 12.3231 21.0939C10.5789 18.9453 9.9052 16.9215 10.0106 15.1828C10.1197 13.3839 11.0607 11.948 12.3918 11.0655C14.9834 9.34733 19.0233 9.73505 21.353 13.3966C23.4967 12.706 25.8931 12.5683 28.028 12.6754C30.0474 12.7767 31.8603 13.0986 33.0494 13.3997C33.8381 11.5391 35.2887 10.5016 36.9057 10.1442C38.6088 9.76776 40.4771 10.1477 41.943 11.0586C43.4122 11.9715 44.5192 13.4471 44.6119 15.2847ZM33.724 14.0595C34.3667 12.2539 35.6543 11.3033 37.095 10.9849C38.5548 10.6622 40.1911 10.9867 41.4811 11.7883C42.7678 12.5878 43.6682 13.8326 43.7436 15.3277C43.8191 16.8226 43.0751 18.6797 40.8331 20.708L40.5822 20.9349L40.7438 21.231C40.972 21.6488 41.5478 23.2441 41.9406 25.4287C42.3311 27.6008 42.5307 30.304 42.044 32.9354C41.5582 35.5622 40.393 38.0983 38.0679 39.9818C35.7423 41.8657 32.2049 43.1381 26.894 43.1387C22.1229 43.0697 18.707 42.0998 16.3088 40.6058C13.917 39.1157 12.508 37.0863 11.7756 34.836C10.3011 30.3054 11.5673 24.8576 13.2253 21.2026L13.3366 20.9571L13.1628 20.7504C11.389 18.641 10.7865 16.751 10.8784 15.2345C10.9701 13.7224 11.7543 12.5246 12.8753 11.7814C15.1178 10.2946 18.7404 10.6182 20.7852 14.1314L20.9665 14.4428L21.3082 14.3217C23.386 13.5852 25.7962 13.4259 27.984 13.5357C30.1689 13.6453 32.0982 14.0214 33.1951 14.3305L33.5881 14.4412L33.724 14.0595Z" stroke="white" stroke-linecap="round"/>
<defs>
<linearGradient id="paint0_linear_44_2348" x1="13" y1="14" x2="41.5" y2="43" gradientUnits="userSpaceOnUse">
<stop stop-color="#0ED19A"/>
<stop offset="1" stop-color="#007730"/>
</linearGradient>
</defs>
</svg>
