<svg width="48" height="48" viewBox="0 0 48 48" fill="none" xmlns="http://www.w3.org/2000/svg">
    <path
        d="M24 48C37.2548 48 48 37.2548 48 24C48 10.7452 37.2548 0 24 0C10.7452 0 0 10.7452 0 24C0 37.2548 10.7452 48 24 48Z"
        fill="#26A17B" />
    <path fill-rule="evenodd" clip-rule="evenodd"
        d="M26.8832 26.0745V26.0715C26.7182 26.0835 25.8677 26.1345 23.9702 26.1345C22.4552 26.1345 21.3887 26.0895 21.0137 26.0715V26.076C15.1817 25.8195 10.8287 24.804 10.8287 23.589C10.8287 22.3755 15.1817 21.36 21.0137 21.099V25.065C21.3947 25.092 22.4867 25.1565 23.9957 25.1565C25.8062 25.1565 26.7137 25.0815 26.8832 25.0665V21.102C32.7032 21.3615 37.0457 22.377 37.0457 23.589C37.0457 24.804 32.7032 25.8165 26.8832 26.0745ZM26.8832 20.6895V17.1405H35.0042V11.7285H12.8927V17.1405H21.0137V20.688C14.4137 20.991 9.4502 22.299 9.4502 23.865C9.4502 25.431 14.4137 26.7375 21.0137 27.042V38.415H26.8832V27.039C33.4727 26.736 38.4242 25.4295 38.4242 23.865C38.4242 22.3005 33.4727 20.994 26.8832 20.6895Z"
        fill="white" />
</svg>
    