<svg width="54" height="54" viewBox="0 0 54 54" fill="none" xmlns="http://www.w3.org/2000/svg">
    <path
        d="M27 54C41.9117 54 54 41.9117 54 27C54 12.0883 41.9117 0 27 0C12.0883 0 0 12.0883 0 27C0 41.9117 12.0883 54 27 54Z"
        fill="url(#paint0_linear_518_3029)" />
    <path fill-rule="evenodd" clip-rule="evenodd"
        d="M28.8858 12.6242C30.0381 11.1982 32.0074 9.73158 34.2967 10.042C36.7014 10.368 39.1876 12.6144 41.2947 18.1891L41.3243 18.2674V22.7031C41.9003 23.067 42.4415 23.5927 42.7824 24.2799C43.1751 25.0715 43.2852 26.0449 42.9197 27.1593C42.2131 29.3134 39.7403 31.9737 34.1498 35.0849C34.2369 36.6497 34.1823 38.9077 33.7465 40.9502C33.5147 42.0368 33.1703 43.0858 32.6655 43.9413C32.1599 44.7983 31.4746 45.4912 30.5547 45.8003L29.9602 46V36.9471L27.3753 38.5102C27.2803 38.5676 27.1728 38.5858 27.0714 38.5694C26.97 38.5858 26.8626 38.5676 26.7676 38.5102L24.1827 36.9471V46L23.5881 45.8003C22.6683 45.4912 21.983 44.7983 21.4773 43.9413C20.9726 43.0858 20.6281 42.0368 20.3963 40.9502C19.9606 38.9077 19.9059 36.6497 19.9931 35.0849C14.4026 31.9737 11.9298 29.3134 11.2232 27.1593C10.8576 26.0449 10.9677 25.0715 11.3604 24.2799C11.7014 23.5927 12.2425 23.067 12.8185 22.7031V18.2674L12.8481 18.1891C14.9552 12.6144 17.4414 10.368 19.8461 10.042C22.1355 9.73158 24.1048 11.1982 25.2571 12.6242H28.8858ZM24.839 13.4881C24.9051 13.5208 24.978 13.5367 25.051 13.5347H28.9613C28.9854 13.5347 29.0091 13.5328 29.0322 13.5291C29.1906 13.5547 29.3575 13.4943 29.4622 13.3572C30.513 11.9803 32.2677 10.6856 34.1763 10.9444C36.0559 11.1992 38.3514 13.0004 40.4209 18.4353V23.2341L40.6563 23.3635C41.1937 23.659 41.6872 24.1084 41.9744 24.6872C42.2559 25.2547 42.3556 25.9781 42.0619 26.8735C41.4605 28.7069 39.2025 31.2708 33.4645 34.4254L33.2095 34.5655L33.2302 34.8575C33.3371 36.3661 33.304 38.693 32.8633 40.7588C32.6429 41.7918 32.3254 42.7362 31.889 43.4759C31.5943 43.9754 31.254 44.3677 30.8636 44.6368V35.3388L27.0714 37.6321L23.2793 35.3388V44.6368C22.8889 44.3677 22.5486 43.9754 22.2539 43.4759C21.8174 42.7362 21.4999 41.7918 21.2796 40.7588C20.8389 38.693 20.8057 36.3661 20.9127 34.8575L20.9334 34.5655L20.6784 34.4254C14.9403 31.2708 12.6824 28.7069 12.081 26.8735C11.7873 25.9781 11.8869 25.2547 12.1685 24.6872C12.4556 24.1084 12.9492 23.659 13.4866 23.3635L13.722 23.2341V18.4353C15.7915 13.0004 18.0869 11.1992 19.9666 10.9444C21.8707 10.6862 23.6215 11.9742 24.6732 13.3474C24.693 13.3748 24.7157 13.3998 24.7409 13.422C24.771 13.4487 24.804 13.4707 24.839 13.4881Z"
        fill="white" stroke="white" stroke-linecap="round" />
    <defs>
        <linearGradient id="paint0_linear_518_3029" x1="11" y1="12" x2="40" y2="46" gradientUnits="userSpaceOnUse">
            <stop stop-color="#EBC013" />
            <stop offset="1" stop-color="#B4630C" />
        </linearGradient>
    </defs>
</svg>